<?xml version="1.0" standalone="no"?>
<!DOCTYPE svg PUBLIC "-//W3C//DTD SVG 1.1//EN" "http://www.w3.org/Graphics/SVG/1.1/DTD/svg11.dtd">
<svg xmlns="http://www.w3.org/2000/svg">
<metadata>Generated by Fontastic.me</metadata>
<defs>
<font id="unified" horiz-adv-x="512">
<font-face font-family="unified" units-per-em="512" ascent="480" descent="-32"/>
<missing-glyph horiz-adv-x="512" />

<glyph glyph-name="plot" unicode="&#97;" d="M510 447l-175-175-112 111-159-159 0-96 159 160 112-112 175 176z m-446-382l0 446-64 0 0-510 512 0 0 64z"/>
<glyph glyph-name="arrow" unicode="&#98;" d="M227 16l45 0 214 218 7 6 9 10 10 6-240 240-45 0 224-224-451 0 0-32 448 0z"/>
<glyph glyph-name="chart-icon-free" unicode="&#99;" d="M216 81l80 0 0 216-80 0z m-108 0l81 0 0 350-81 0z m-108 0l81 0 0 54-81 0z m323 0l81 0 0 242-81 0z m108 81l0-81 81 0 0 81z"/>
<glyph glyph-name="chart-icon-individual" unicode="&#100;" d="M76 85l57 0 0 152-57 0z m152 0l56 0 0 266-56 0z m-228 0l57 0 0 57-57 0z m152 0l57 0 0 342-57 0z m303 57l0-57 57 0 0 57z m-76-57l57 0 0 171-57 0z m-76 0l57 0 0 285-57 0z"/>
<glyph glyph-name="chart-icon-organization" unicode="&#101;" d="M105 118l39 0 0 276-39 0z m53 0l39 0 0 210-39 0z m-106 0l40 0 0 131-40 0z m-52 0l39 0 0 66-39 0z m210 0l39 0 0 250-39 0z m263 53l0-53 39 0 0 53z m-53-53l39 0 0 158-39 0z m-157 0l39 0 0 158-39 0z m105 0l39 0 0 250-39 0z m-53 0l39 0 0 236-39 0z"/>
<glyph glyph-name="check" unicode="&#102;" d="M499 496c-156-102-269-234-320-301l-124 106-55-48 214-237c39 102 154 304 298 445z"/>
<glyph glyph-name="check-mark" unicode="&#103;" d="M201 222l-120 119-81-81 162-158 39-38 311 303-81 81z"/>
<glyph glyph-name="folder-closed" unicode="&#104;" d="M224 384l-58 64-166 0 0-384 512 0 0 320z"/>
<glyph glyph-name="document" unicode="&#105;" d="M437 0l-362 0c-7 0-11 4-11 11l0 490c0 7 4 11 11 11l234 0c2 0 7-2 9-2l128-128c0-2 2-7 2-9l0-362c0-7-4-11-11-11z m-352 21l342 0 0 348-122 122-220 0z m352 342l-128 0c-6 0-10 4-10 10l0 128c0 7 4 11 10 11 7 0 11-4 11-11l0-117 117 0c7 0 11-4 11-11 0-6-4-10-11-10z m-181-22l-96 0c-6 0-11 5-11 11 0 6 5 11 11 11l96 0c6 0 11-5 11-11 0-6-5-11-11-11z m96-64l-192 0c-6 0-11 5-11 11 0 6 5 11 11 11l192 0c6 0 11-5 11-11 0-6-5-11-11-11z m0-64l-192 0c-6 0-11 5-11 11 0 6 5 11 11 11l192 0c6 0 11-5 11-11 0-6-5-11-11-11z m0-64l-192 0c-6 0-11 5-11 11 0 6 5 11 11 11l192 0c6 0 11-5 11-11 0-6-5-11-11-11z m0-64l-192 0c-6 0-11 5-11 11 0 6 5 11 11 11l192 0c6 0 11-5 11-11 0-6-5-11-11-11z"/>
<glyph glyph-name="edit" unicode="&#106;" d="M24 168l-10-82-14-86 82 10 83 11-72 72z m165-72l-24 24 213 217-45 48-213-217-24 24 213 217-24 24-237-241 144-144 238 241-25 24z m313 309l-97 97c-13 13-34 13-48 0l-3-4-41-44 144-145 48 48c10 14 10 35-3 48z"/>
<glyph glyph-name="edit-text" unicode="&#107;" d="M384 23l-33 0c-46 0-82 36-82 82l0 100 51 0 0 25-51 0 0 177c0 46 36 82 82 82l36 0c7 0 12 5 12 13-2 5-7 10-15 10l-33 0c-41 0-77-23-95-56-18 33-54 56-95 56l-33 0c-8 0-13-5-13-13 0-7 5-13 13-13l36 0c43 3 79-33 79-79l0-177-51 0 0-25 51 0 0-100c0-46-36-82-82-82l-33 0c-8 0-13-5-13-13 0-5 5-10 13-10l36 0c41 0 77 23 95 56 15-33 51-56 92-56l36 0c7 0 12 5 12 13-2 5-7 10-15 10z"/>
<glyph glyph-name="envelope" unicode="&#108;" d="M483 416l-454 0 227-202z m26-22l-160-144 160-141c0 9 3 13 3 19l0 256c0 3 0 6-3 10z m-506 3c-3-3-3-10-3-13l0-256c0-3 0-10 3-13l160 138z m253-227l-67 60-160-134 451 0-154 134z"/>
<glyph glyph-name="facebook" unicode="&#109;" d="M132 343l53 0 0 51c0 23 1 58 17 79 18 24 42 39 83 39 66 0 95-9 95-9l-14-79c0 0-22 7-43 7-20 0-39-8-39-28l0-60 85 0-6-77-79 0 0-266-99 0 0 266-53 0z"/>
<glyph glyph-name="filing-cabinet" unicode="&#110;" d="M448 336l-384 0c-16 0-32-16-32-32l0-224c0-16 16-32 32-32l384 0c16 0 32 16 32 32l0 224c0 16-16 32-32 32z m-102-106c0-16-16-32-32-32l-122 0c-16 0-32 16-32 32l0 10c0 16 16 32 32 32l122 0c16 0 32-16 32-32z m134 234l-448 0c-16 0-32-16-32-32l0-64 512 0 0 64c0 16-16 32-32 32z"/>
<glyph glyph-name="full-view" unicode="&#111;" d="M0 445l0-378 512 0 0 378z m485-351l-458 0 0 324 458 0z"/>
<glyph glyph-name="github" unicode="&#112;" d="M302 137c57 7 117 28 117 126 0 28-9 51-26 69 3 6 11 32-3 67 0 0-20 7-69-26-21 6-44 9-65 9-22 0-44-3-65-9-49 33-70 26-70 26-14-35-5-61-3-67-16-18-26-41-26-69 0-98 61-119 118-126-7-6-14-18-17-34-14-7-52-19-75 21 0 0-13 24-39 26 0 0-25 0-2-16 0 0 17-8 29-37 0 0 15-49 87-34l0-44c0-7-5-14-18-12-102 33-175 130-175 243 0 141 115 256 256 256 141 0 256-115 256-256 0-113-73-209-175-243-13-3-18 5-18 12l0 71c0 24-8 40-17 47z"/>
<glyph glyph-name="google" unicode="&#113;" d="M193 271c0 29 64 37 64 106 0 41-4 65-36 80 0 10 57 4 57 22-10 0-125 0-125 0 0 0-127-3-127-110 0-107 111-94 111-94 0 0 0-17 0-28 0-11 15-7 17-29-8 0-154 4-154-93 0-97 129-93 129-93 0 0 149-7 149 114 0 72-85 96-85 125z m-108 92c-12 43 4 85 34 93 31 8 65-20 77-62 12-44-4-85-34-93-31-9-65 19-77 62z m64-299c-52-4-96 24-98 61-3 38 37 71 88 75 52 3 96-24 98-62 3-38-37-71-88-74z m363 328l0-25-87 0 0-87-26 0 0 87-86 0 0 25 86 0 0 87 26 0 0-87z"/>
<glyph glyph-name="graph" unicode="&#114;" d="M156 7l-101 0c-6 0-10 5-10 11l0 276c0 7 4 11 10 11l101 0c7 0 11-4 11-11l0-276c0-6-6-11-11-11z m-90 22l79 0 0 254-79 0z m239-22l-98 0c-7 0-11 5-11 11l0 375c0 7 4 11 11 11l101 0c6 0 10-4 10-11l0-375c-2-6-6-11-13-11z m-87 22l79 0 0 353-79 0z m239-22l-101 0c-7 0-11 5-11 11l0 476c0 6 4 11 11 11l101 0c6 0 10-5 10-11l0-476c0-6-4-11-10-11z m-90 22l79 0 0 454-79 0z"/>
<glyph glyph-name="grid-alt" unicode="&#115;" d="M96 96l320 0 0 320-320 0z m32 32l0 64 64 0 0-64z m96 0l0 64 64 0 0-64z m64 160l0-64-64 0 0 64z m32-160l0 64 64 0 0-64z m64 160l0-64-64 0 0 64z m-192 0l0-64-64 0 0 64z m96 96l0-64-64 0 0 64z m96 0l0-64-64 0 0 64z m-192 0l0-64-64 0 0 64z m320 128l-512 0 0-512 512 0z m-64-64l0-384-384 0 0 384z"/>
<glyph glyph-name="inbox" unicode="&#116;" d="M384 192l0-32c0-35-29-64-64-64l-128 0c-35 0-64 29-64 64l0 32-128 0 0-192 512 0 0 192z m0 160l-64 0c6 80 32 128 128 157-10 3-22 3-35 3-103 0-189-67-221-160l-64 0 128-160z"/>
<glyph glyph-name="link" unicode="&#117;" d="M118 0c-26 0-51 8-70 28l-20 22c-20 20-28 42-28 70 0 28 11 51 28 70l129 126c36 37 100 37 137 0l19-19c6-6 6-14 0-20-5-6-14-6-19 0l-17 20c-25 25-73 25-98 0l-129-129c-14-14-22-31-22-50 0-20 8-37 20-51l19-19c28-28 73-28 98 0l90 89c5 6 14 6 19 0 6-6 6-14 0-19l-89-90c-17-17-42-28-67-28z m167 168c-25 0-50 11-70 28-5 5-5 14 0 19 6 6 14 6 20 0 25-25 73-25 98 0l129 129c28 28 28 73 0 98l-20 20c-25 25-73 25-98 0l-87-87c-5-6-16-6-22 0-6 6-6 14 0 19l90 90c36 36 100 36 137 0l19-20c39-39 39-100 0-139l-128-129c-17-17-40-28-68-28z"/>
<glyph glyph-name="linkedin-iconsvg" unicode="&#118;" d="M117 13l0 327-108 0 0-327z m-54 372c38 0 62 25 62 57-2 32-24 57-61 57-38 0-62-25-62-57 0-32 24-57 61-57z m114-372l109 0 0 184c0 9 1 19 4 26 8 20 26 40 55 40 40 0 56-31 56-74l0-176 108 0 0 189c0 100-54 148-126 148-58 0-84-33-99-56l2 0 0 46-109 0c2-30 0-327 0-327z"/>
<glyph glyph-name="list-view" unicode="&#119;" d="M0 307l512 0 0 34-512 0z m0-68l512 0 0 34-512 0z m0-68l512 0 0 34-512 0z m0-137l512 0 0 34-512 0z m0 341l512 0 0 35-512 0z m0-273l512 0 0 35-512 0z m0 376l0-34 512 0 0 34z"/>
<glyph glyph-name="lock" unicode="&#120;" d="M421 267l-26 0 0 88c0 44-15 84-40 109-22 30-59 48-99 48-40 0-77-18-99-48-25-29-40-69-40-109l0-88-26 0c-11 0-18-7-18-18l0-227c0-15 7-22 18-22l330 0c11 0 18 7 18 18l0 231c0 11-7 18-18 18z m-238 88c0 25 7 47 22 62 14 15 33 22 51 22 18 0 37-7 51-26 15-14 22-36 22-58l0-88-146 0z"/>
<glyph glyph-name="plotlylogo" unicode="&#121;" d="M76 66l57 0 0 152-57 0z m-76 0l57 0 0 57-57 0z m152 0l57 0 0 380-57 0z m227 0l57 0 0 209-57 0z m76 57l0-57 57 0 0 57z m-227-57l56 0 0 285-56 0z m75 0l57 0 0 342-57 0z"/>
<glyph glyph-name="notebook-ip" unicode="&#122;" d="M442 0l-349 0c-7 0-12 5-12 12l0 488c0 7 5 12 12 12l349 0c7 0 12-5 12-12l0-488c0-7-5-12-12-12z m-337 23l326 0 0 466-326 0z m11 396l-46 0c-7 0-12 5-12 12 0 7 5 11 12 11l46 0c7 0 12-4 12-11 0-7-5-12-12-12z m0-70l-46 0c-7 0-12 5-12 12 0 7 5 11 12 11l46 0c7 0 12-4 12-11 0-7-5-12-12-12z m0-70l-46 0c-7 0-12 5-12 12 0 7 5 12 12 12l46 0c7 0 12-5 12-12 0-7-5-12-12-12z m0-70l-46 0c-7 0-12 5-12 12 0 7 5 12 12 12l46 0c7 0 12-5 12-12 0-7-5-12-12-12z m0-69l-46 0c-7 0-12 4-12 11 0 7 5 12 12 12l46 0c7 0 12-5 12-12 0-7-5-11-12-11z m0-70l-46 0c-7 0-12 4-12 11 0 7 5 12 12 12l46 0c7 0 12-5 12-12 0-7-5-11-12-11z m233 270c-32 2-60 0-60 0l0-168 21 0 0 65 39 0c33 3 44 33 44 52 0 21-11 48-44 51z m-5-86c-9 0-34 0-34 0l0 67c0 0 20 0 34 0 10 0 26-9 26-32 0-24-16-35-26-35z m-81 72l0 14-88 0 0-14 32 0 0-140-32 0 0-16 88 0 0 16-33 0 0 140z"/>
<glyph glyph-name="notebook-m-icon" unicode="&#65;" d="M442 0l-349 0c-7 0-12 5-12 12l0 488c0 7 5 12 12 12l349 0c7 0 12-5 12-12l0-488c0-7-5-12-12-12z m-337 23l326 0 0 466-326 0z m11 396l-46 0c-7 0-12 5-12 12 0 7 5 11 12 11l46 0c7 0 12-4 12-11 0-7-5-12-12-12z m0-70l-46 0c-7 0-12 5-12 12 0 7 5 11 12 11l46 0c7 0 12-4 12-11 0-7-5-12-12-12z m0-70l-46 0c-7 0-12 5-12 12 0 7 5 12 12 12l46 0c7 0 12-5 12-12 0-7-5-12-12-12z m0-70l-46 0c-7 0-12 5-12 12 0 7 5 12 12 12l46 0c7 0 12-5 12-12 0-7-5-12-12-12z m0-69l-46 0c-7 0-12 4-12 11 0 7 5 12 12 12l46 0c7 0 12-5 12-12 0-7-5-11-12-11z m0-70l-46 0c-7 0-12 4-12 11 0 7 5 12 12 12l46 0c7 0 12-5 12-12 0-7-5-11-12-11z m93 98l0 176 35 0 42-125c5-12 7-21 10-26 2 7 4 16 9 28l42 123 30 0 0-176-23 0 0 149-51-147-19 0-51 149 0-151z m-58 32l33 0 0-32-33 0z"/>
<glyph glyph-name="notebook-r" unicode="&#66;" d="M442 0l-349 0c-7 0-12 5-12 12l0 488c0 7 5 12 12 12l349 0c7 0 12-5 12-12l0-488c0-7-5-12-12-12z m-337 23l326 0 0 466-326 0z m11 396l-46 0c-7 0-12 5-12 12 0 7 5 11 12 11l46 0c7 0 12-4 12-11 0-7-5-12-12-12z m0-70l-46 0c-7 0-12 5-12 12 0 7 5 11 12 11l46 0c7 0 12-4 12-11 0-7-5-12-12-12z m0-70l-46 0c-7 0-12 5-12 12 0 7 5 12 12 12l46 0c7 0 12-5 12-12 0-7-5-12-12-12z m0-70l-46 0c-7 0-12 5-12 12 0 7 5 12 12 12l46 0c7 0 12-5 12-12 0-7-5-12-12-12z m0-69l-46 0c-7 0-12 4-12 11 0 7 5 12 12 12l46 0c7 0 12-5 12-12 0-7-5-11-12-11z m0-70l-46 0c-7 0-12 4-12 11 0 7 5 12 12 12l46 0c7 0 12-5 12-12 0-7-5-11-12-11z m96 95l0 172 77 0c16 0 28-2 34-4 7-3 14-10 19-16 5-7 7-17 7-26 0-12-5-23-12-30-7-10-20-14-37-17 7-2 12-4 14-9 7-7 14-14 19-23l30-47-28 0-23 35c-7 9-12 19-16 23-5 7-10 10-12 12-2 2-7 5-9 5-3 0-7 0-12 0l-28 0 0-77-23 0z m23 96l49 0c9 0 19 0 26 2 7 2 9 5 13 9 3 5 5 10 5 17 0 9-2 14-9 21-7 4-16 7-28 7l-56 0z"/>
<glyph glyph-name="notifications" unicode="&#67;" d="M501 117c-12 11-23 17-40 22 0 0-3 0-3 0-60 54-31 97-31 151 0 54-54 134-128 159 0 3 0 3 0 6 0 23-17 43-43 43-23 0-43-20-43-43 0-3 0-6 0-8-71-26-122-103-122-157 0-54 26-97-31-145-12-3-23-8-32-11-8-3-14-9-19-15-6-5-12-17-12-28 0-11 6-20 12-28 11-12 22-17 39-23 23-9 54-14 89-20 37-3 76-6 119-6 65 0 125 6 168 14 23 6 40 12 57 18 8 2 14 8 20 14 5 5 11 17 11 28 0 14-6 23-11 29z m-57-29c-17-6-46-11-77-17-31-3-71-6-111-6-63 0-119 6-156 15-18 2-29 8-37 11 2 0 2 3 5 3 17 6 43 11 77 14 23 3 46 6 71 6 3-17 20-32 40-32 20 0 37 15 40 32 45-3 88-6 116-14 18-3 29-9 37-12 0 0-2 0-5 0z"/>
<glyph glyph-name="office" unicode="&#68;" d="M384 352l0 160-384 0 0-512 512 0 0 352z m0-32l32 0 0-96-32 0z m-256-224l-64 0 0 64 64 0z m0 96l-64 0 0 64 64 0z m0 96l-64 0 0 64 64 0z m0 96l-64 0 0 64 64 0z m96-352l-64 0 0 32 64 0z m0 64l-64 0 0 64 64 0z m0 96l-64 0 0 64 64 0z m0 96l-64 0 0 64 64 0z m0 96l-64 0 0 64 64 0z m96-288l-64 0 0 64 64 0z m0 96l-64 0 0 64 64 0z m0 96l-64 0 0 64 64 0z m0 96l-64 0 0 64 64 0z m64-192l32 0 0-96-32 0z m64-160l-32 0 0 32 32 0z m32 64l-32 0 0 96 32 0z m0 128l-32 0 0 96 32 0z"/>
<glyph glyph-name="folder-open" unicode="&#69;" d="M0 336l64-288 384 0 64 288z m480 64l-288 0-64 64-96 0 0-96 448 0z"/>
<glyph glyph-name="people" unicode="&#70;" d="M496 122c-16 22-67 38-115 57-51 19-61 29-61 29l0 48c0 0 19 13 26 61 12-3 25 16 25 29 0 9-3 38-16 38 0 19 3 38 0 48-3 38-41 80-99 80-61 0-96-42-102-80 0-10 0-29 3-51-13 3-16-26-13-39 0-9 13-32 26-28 3-42 22-58 22-58l0-48c0 0-13-6-61-29-51-19-102-35-115-57-16-23-13-122-13-122l503 0c0 0 6 99-10 122z"/>
<glyph glyph-name="phone" unicode="&#71;" d="M6 336c96-277 324-332 359-336 84-8 137 45 147 125 0 0-84 55-127 63l-66-65c0 0-36-2-114 78-78 80-78 116-78 116l57 60c-8 59-43 153-108 131-66-21-88-113-70-172z"/>
<glyph glyph-name="plot-box" unicode="&#72;" d="M448 384l0-96-64 0 0 139-256 0 0-139-64 0 0 96-64 0 0-256 64 0 0 96 64 0 0-139 256 0 0 139 64 0 0-96 64 0 0 256z m-256-235l0 214 128 0 0-214z"/>
<glyph glyph-name="plot-3d-surface" unicode="&#73;" d="M374 260c-29 9-45 48-45 48-1 4-9 21-9 25-1 3-9 27-11 34l-6 13c-4 8-11 22-20 33l-5 5-4 3c-6 4-11 6-17 6-6 0-17-3-25-11l-8-11c-1-2-3-5-5-8-2-4-5-9-7-14l2 4c-3-6-6-12-6-12 0 0-7-17-9-25 0 0-4-12-5-18 0 2 1 5 1 7l-5-17c-4-7-8-18-8-18-8-11-14-32-51-46l-47-16-84-29 256-128 256 128z m-181 69c0-1-1-2-2-3 1 1 1 2 2 3z"/>
<glyph glyph-name="plot-3d-line" unicode="&#74;" d="M344 262l-87 26 52-85z m72 122l-72-122 43-12 29 49 38-69-67 20-78-133-94 159-146-43 102 119 44-76 41 12 1 0-86 139-171-213 1 0-1-1 256-128 256 128z"/>
<glyph glyph-name="tooltip-compare" unicode="&#76;" d="M85 455l-85-85 85-86 427 0 0 171z m0-228l0 1-85-86 85-85 427 0 0 171z"/>
<glyph glyph-name="tooltip-basic" unicode="&#77;" d="M128 384l-128-128 128-128 384 0 0 256z"/>
<glyph glyph-name="autoscale" unicode="&#78;" d="M128 512l-128 0 0-128 32 0 0 96 96 0z m352 0l-96 0 0-32 96 0 0-96 32 0 0 128z m-448-480l0 96-32 0 0-128 128 0 0 32z m448 96l0-96-96 0 0-32 128 0 0 128z m-64 96l-48-48-80 80 80 80 47-48 1 0 0 128-128 0 0-1 48-47-80-80-80 80 48 47 0 1-128 0 0-128 48 48 80-80-80-80-48 48 0-128 128 0-48 48 80 80 80-80-48-48 128 0z"/>
<glyph glyph-name="zoom-minus" unicode="&#79;" d="M0 480l0-448 448 0 0 448z m352-256l-256 0 0 64 256 0z"/>
<glyph glyph-name="zoom-plus" unicode="&#80;" d="M0 480l0-448 448 0 0 448z m352-256l-96 0 0-96-64 0 0 96-96 0 0 64 96 0 0 96 64 0 0-96 96 0z"/>
<glyph glyph-name="pan" unicode="&#81;" d="M512 256l-96 96 0-64-128 0 0 128 64 0-96 96-96-96 64 0 0-128-128 0 0 64-96-96 95-96 0 64 129 0 0-128-64 0 96-96 96 96-64 0 0 128 128 0 0-64z"/>
<glyph glyph-name="zoombox" unicode="&#82;" d="M512 64l-128 129c21 32 32 70 32 111 0 115-93 208-208 208-115 0-208-93-208-208 0-115 94-208 208-208 42 0 80 11 112 32l128-128z m-416 128l0 224 224 0 0-224z m32 192l160 0 0-160-160 0z"/>
<glyph glyph-name="themes" unicode="&#83;" d="M448 448l64 0 0-208-64 0z m-32 0l96 0 0-64-96 0z m-224-192l320 0 0-64-320 0z m-32-96l128 0 0-160-128 0z m-160 352l0-192 416 0 0 192z m352-128l-288 0 0 64 288 0z m-160-160l64 0 0-96-64 0z"/>
<glyph glyph-name="analysis" unicode="&#84;" d="M512 512l-512 0 0-64 192-192-192-192 0-64 512 0 0 160-64 0 0-96-352 0 192 192-192 192 352 0 0-96 64 0z"/>
<glyph glyph-name="annotate" unicode="&#85;" d="M0 192l69 0 0-191-69 0z m303 239l48 48 159-159-48-48z m-255-286l-48 47 319 319 48-48z m145-144l-48 48 318 319 49-48z m-193 64l191 0 0-64-191 0z m32 127l48 48 159-159-48-48z"/>
<glyph glyph-name="axes" unicode="&#86;" d="M512 96l-128 96 0-64-248 0 0 256 56 0-96 128-96-128 64 0 0-320 320 0 0-64z"/>
<glyph glyph-name="copy" unicode="&#87;" d="M64 192l0 256 256 0 0-64 64 0 0 128-384 0 0-384 128 0 0 64z m256 128l0 64-192 0 0-192 64 0 0 128z m64 64l0-64 64 0 0-256-256 0 0 64-64 0 0-128 384 0 0 384z m-256-192l64 0 0-64-64 0z m192 192l64 0 0-64-64 0z"/>
<glyph glyph-name="plot-error-bars" unicode="&#88;" d="M0 363l64 0 0-55-32 0 0-64 32 0 0-52-64 0 0-64 192 0 0 64-64 0 0 52 31 0 0 64-31 0 0 55 64 0 0 64-192 0z m512-43l0 64-192 0 0-64 64 0 0-53-32 0 0-64 32 0 0-54-64 0 0-64 192 0 0 64-64 0 0 54 32 0 0 64-32 0 0 53z"/>
<glyph glyph-name="plot-stacked-area" unicode="&#89;" d="M235 149l-235 86 0-150 512 0 0 86-128 63z m149 235l-149-86-235 129 0-149 235-86 149 85 128-64 0 108z"/>
<glyph glyph-name="plot-scatter" unicode="&#90;" d="M0 384c0-24 19-43 43-43 23 0 42 19 42 43 0 24-19 43-42 43-24 0-43-19-43-43z m171-128c0-24 19-43 42-43 24 0 43 19 43 43 0 24-19 43-43 43-23 0-42-19-42-43z m85 107c0-24 19-43 43-43 23 0 42 19 42 43 0 23-19 42-42 42-24 0-43-19-43-42z m-171-235c0-24 19-43 43-43 24 0 43 19 43 43 0 24-19 43-43 43-24 0-43-19-43-43z m256 64c0-24 19-43 43-43 24 0 43 19 43 43 0 24-19 43-43 43-24 0-43-19-43-43z m86 128c0-24 19-43 42-43 24 0 43 19 43 43 0 24-19 43-43 43-23 0-42-19-42-43z"/>
<glyph glyph-name="plot-line" unicode="&#48;" d="M512 427l-150-235-255 235-107-214 0-127 128 234 256-234 128 213z"/>
<glyph glyph-name="plot-hist" unicode="&#49;" d="M0 192l85 0 0-107-85 0z m107 128l85 0 0-235-85 0z m106 107l86 0 0-342-86 0z m107-107l85 0 0-235-85 0z m107-128l85 0 0-107-85 0z"/>
<glyph glyph-name="plot-heatmap" unicode="&#50;" d="M0 427l85 0 0-86-85 0z m85-256l0 85-85 0 0-171 171 0 0 86z m86 256l85 0 0-86-85 0z m-86-86l86 0 0-85-86 0z m171 0l85 0 0-85-85 0z m-85-85l85 0 0-85-85 0z m256 171l-86 0 0-86 86 0 0-85 85 0 0 171z m-86-171l86 0 0-85-86 0z m-85-85l85 0 0-86-85 0z m171 0l85 0 0-86-85 0z"/>
<glyph glyph-name="plot-fit" unicode="&#51;" d="M21 203c0-24 19-43 43-43 24 0 43 19 43 43 0 23-19 42-43 42-24 0-43-19-43-42z m128 181c0-24 19-43 43-43 24 0 43 19 43 43 0 24-19 43-43 43-24 0-43-19-43-43z m256-75c0-23 19-42 43-42 24 0 43 19 43 42 0 24-19 43-43 43-24 0-43-19-43-43z m-128-181c0-24 19-43 43-43 24 0 43 19 43 43 0 24-19 43-43 43-24 0-43-19-43-43z m235 21l-512 150 0 64 512-150z"/>
<glyph glyph-name="save" unicode="&#52;" d="M288 480l64 0 0-128-64 0z m145 32l-49 0 0-192-256 0 0 192-128 0 0-512 512 0 0 433z m15-448l-384 0 0 192 384 0z"/>
<glyph glyph-name="plot-bar" unicode="&#53;" d="M0 171l171 0 0-86-171 0z m0 127l342 0 0-85-342 0z m0 129l512 0 0-86-512 0z"/>
<glyph glyph-name="plot-area" unicode="&#54;" d="M512 86l-192 256-64-86-107 172-149-342z"/>
<glyph glyph-name="plot-2d-hist" unicode="&#55;" d="M512 256l-85 0 0 85-86 0 0 86-170 0 0-86-171 0 0-85 85 0 0-85 86 0 0-86 170 0 0 86 171 0z"/>
<glyph glyph-name="fold" unicode="&#56;" d="M0 416l512 0 0-384-512 0z m192 0l-192 0 0 64 144 0z"/>
<glyph glyph-name="book" unicode="&#57;" d="M162 0c-28 0-77 15-77 75l0 266c0 7 5 11 11 11 6 0 11-4 11-11l0-266c0-54 51-54 53-54l245 30 0 352-264-30c-32 0-56 24-56 54 0 42 22 47 116 59 40 5 96 13 170 26 7 0 11-2 13-9 0-6-2-10-9-12-74-13-130-22-170-26-98-13-98-15-98-38 0-17 15-32 32-32l275 32c2 0 6 0 8-2 3-3 5-7 5-9l0-373c0-7-5-11-9-11z m-13 416c-4 0-10 4-10 9 0 6 4 10 8 12l246 32c6 0 12-4 12-8 0-7-4-13-8-13z"/>
<glyph glyph-name="grid" unicode="&#33;" d="M0 512l0-512 512 0 0 512z m224-448l-160 0 0 160 160 0z m0 224l-160 0 0 160 160 0z m224-224l-160 0 0 160 160 0z m0 224l-160 0 0 160 160 0z"/>
<glyph glyph-name="import" unicode="&#34;" d="M288 128l-64 0 0 340 64 0z m-80 336l48 48 160-160-48-48z m48 48l48-48-160-160-48 48z m-256-384l512 0 0-128-512 0z"/>
<glyph glyph-name="plus" unicode="&#35;" d="M307 307l0 205-102 0 0-205-205 0 0-102 205 0 0-205 102 0 0 205 205 0 0 102z"/>
<glyph glyph-name="recent" unicode="&#36;" d="M256 512c-143 0-256-113-256-256 0-143 113-256 256-256 143 0 256 113 256 256 0 143-117 256-256 256z m0-435c-99 0-183 80-183 183 0 102 81 183 183 183 99 0 183-81 183-183 0-103-84-183-183-183z m22 212l0 66c0 11-7 18-18 18-11 0-19-7-19-18l0-84 4-4 91-73c4-4 8-4 11-4 4 0 11 4 15 7 7 8 4 19-4 26z"/>
<glyph glyph-name="revisons" unicode="&#37;" d="M352 432l-352 0 0-32 352 0z m-352-64l0-32 512 0 0 32z m384-64l-384 0 0-32 384 0z m-384-96l480 0 0 32-480 0z m352-32l-352 0 0-32 352 0z m-352-96l448 0 0 32-448 0z"/>
<glyph glyph-name="share" unicode="&#38;" d="M262 410l0 102 205-172-202-171 0 96c-202-27-114-151 0-265-401 262-163 382-3 410z"/>
<glyph glyph-name="star" unicode="&#39;" d="M250 496l70-186 192 0-163-112 67-182-166 109-154-109 54 182-150 112 192 0z"/>
<glyph glyph-name="suitcase" unicode="&#40;" d="M500 384l-140 0c-6 52-50 93-104 93-54 0-98-41-104-93l-140 0c-7 0-12-5-12-12l0-325c0-7 5-12 12-12l488 0c7 0 12 5 12 12l0 325c0 7-5 12-12 12z m-244 70c41 0 74-30 80-70l-160 0c6 40 39 70 80 70z m233-93l0-93-186 0 0 11c0 7-5 12-12 12l-70 0c-7 0-12-5-12-12l0-11-186 0 0 93z m-256-93l46 0 0-70-46 0z m-210-210l0 186 186 0 0-58c0-7 5-11 12-11l70 0c7 0 12 4 12 11l0 58 186 0 0-186z"/>
<glyph glyph-name="tag" unicode="&#41;" d="M320 0c-2 0-6 0-9 2l-307 312c-2 0-4 4-4 6l0 181c0 2 2 7 2 9 0 2 7 2 9 2l181 0c2 0 6-2 9-2l309-309c4-5 4-11 0-15l-181-182c-3-4-7-4-9-4z m-299 324l299-298 166 166-298 299-167 0z m96 17c-30 0-53 24-53 54 0 30 23 53 53 53 30 0 54-23 54-53 0-30-24-54-54-54z m0 86c-17 0-32-15-32-32 0-17 15-32 32-32 17 0 32 15 32 32 0 17-15 32-32 32z"/>
<glyph glyph-name="team" unicode="&#42;" d="M296 238l0 22c6 5 14 15 16 39 6 5 10 15 10 24 0 6-1 11-3 14-1 1-2 3-4 5 3 8 9 22 5 37-6 21-34 29-56 29-20 0-44-6-53-23-9 1-15-4-17-7-7-11-1-26 4-37-2-2-4-3-4-5-3-4-4-9-4-14 0-9 4-19 10-24 1-24 10-34 16-39l0-22c-30-12-88-38-88-54l0-72c0-5 3-8 8-8l240 0c5 0 8 3 8 8l0 72c0 16-58 42-88 55z m72-118l-224 0 0 62c6 8 42 26 83 43 3 1 5 4 5 7l0 32c0 3-2 6-5 7 0 0-11 6-11 33 0 4-3 8-7 8-2 2-4 9-3 14 1 2 1 2 2 2 5 0 8 3 8 8 0 2-1 5-3 10-7 16-7 20-7 22 0 0 4 1 8 0 4-1 8 2 9 6 3 11 20 18 41 18 21 0 38-7 40-18 3-11-2-23-5-29-1-3-2-6-2-8 0-5 4-8 9-8 0 0 1-2 1-6 0-5-1-9-3-10-4 0-7-4-7-8 0-27-11-33-11-33-4-2-6-5-6-8l0-32c0-3 2-6 5-7 41-17 77-35 83-43z m95 93c-7 2-15 5-23 9l0 13c6 4 14 13 16 32 6 5 8 14 8 23 0 4-1 9-2 14-1 2-2 3-3 4 4 7 9 18 5 31-6 18-30 23-47 23-16 0-36-4-45-17-6 0-11-2-14-6-8-8-3-21 0-31-1-2-2-3-3-5-3-4-3-9-3-13 0-9 3-18 8-23 2-19 10-28 16-32l0-11c0-5 3-8 8-8 5 0 8 3 8 8l0 16c0 3-2 6-6 8 0 0-10 4-10 24 0 4-2 7-6 8-3 3-4 14-2 16 4 0 7 4 7 8 0 2-1 4-2 8-3 10-5 15-5 17 0 0 2 1 6 0 4-1 8 1 8 5 3 8 16 13 33 13 16 0 31-5 32-13 3-8-2-16-5-21-2-3-4-6-4-8 0-4 4-7 8-8 1-3 0-13-1-16-3-1-6-4-6-8 0-21-9-24-10-24-3-1-6-4-6-8l0-24c0-3 2-7 5-7 10-4 19-8 29-11 14-5 33-12 38-16l0-63-79 0c-5 0-8-3-8-8 0-5 3-8 8-8l88 0c5 0 8 3 8 8l0 72c0 11-14 17-49 29z m-327 11l0 11c6 4 14 13 16 32 6 5 8 14 8 23 0 4-1 9-2 14-1 2-3 3-4 5 4 9 8 22 1 31-3 4-8 6-14 6-9 12-29 16-45 16-18 0-42-6-48-24-4-12 1-24 5-31-1-1-2-2-3-4-1-5-2-9-2-13 0-9 2-19 8-24 2-20 11-29 18-32l4-14c-9-3-20-7-29-10-36-12-48-16-48-27l0-72c0-5 3-8 8-8l88 0c5 0 8 3 8 8 0 5-3 8-8 8l-81 0 0 62c6 3 24 9 38 13 12 4 26 9 37 13 1 0 1 1 1 1 1 0 1 1 2 1 0 0 0 1 0 1 0 1 1 1 1 2 0 1 0 1 1 2 0 0 0 0 0 1 0 1 0 1 0 2 0 1 0 1 0 1l-8 24c-1 3-3 5-6 5 0 0-10 4-10 24 0 4-2 7-6 8-2 3-2 13 0 16 3 2 6 5 6 9 0 3-2 5-3 8-3 5-8 14-6 22 3 7 16 12 32 12 16 0 31-5 32-12 2-4 6-7 9-6 3 1 5 1 5 1 1-3-1-8-4-17-2-4-3-6-3-8 0-4 4-7 8-8 1-3 0-13-2-16-3-1-6-4-6-8 0-21-10-24-11-24-3-1-5-4-5-8l0-16c0-5 3-8 8-8 4 0 10 3 10 8z"/>
<glyph glyph-name="thumbnail-view" unicode="&#43;" d="M0 394l118 0 0 118-118 0z m0-197l118 0 0 118-118 0z m197 197l118 0 0 118-118 0z m0-197l118 0 0 118-118 0z m197 315l0-118 118 0 0 118z m0-315l118 0 0 118-118 0z m-394-197l118 0 0 118-118 0z m197 0l118 0 0 118-118 0z m197 0l118 0 0 118-118 0z"/>
<glyph glyph-name="trash" unicode="&#44;" d="M368 64l-32 0 0 256-64 0 0-256-32 0 0 256-64 0 0-256-32 0 0 256-64 0 0-304c0-10 6-16 16-16l320 0c10 0 16 6 16 16l0 304-64 0z m96 384l-128 0 0 48c0 10-6 16-16 16l-128 0c-10 0-16-6-16-16l0-48-128 0c-16 0-32-16-32-32l0-32c0-16 16-32 32-32l416 0c16 0 32 16 32 32l0 32c0 16-16 32-32 32z m-160 0l-96 0 0 32 96 0z"/>
<glyph glyph-name="twitter" unicode="&#45;" d="M512 416c-18-8-38-13-59-16 0 0 0 1-1 1 22 13 39 34 47 59-6-4-37-22-67-28-20 22-48 36-79 36-67 0-107-55-107-108 0-4 1-20 2-22-90 2-169 45-219 111-37-67 1-125 28-145-15 0-30 4-43 10 2-51 40-93 88-103-19-6-43-2-52 1 15-43 54-75 101-76-72-53-149-48-151-48 46-28 99-44 156-44 209 2 317 188 304 320 23 11 42 29 52 52z"/>
<glyph glyph-name="unlock" unicode="&#46;" d="M358 495c-85 0-153-68-153-154l0-51-205 0 0-273 341 0 0 273-68 0 0 51c0 48 38 86 85 86 48 0 86-38 86-86l0-51 68 0 0 51c0 86-68 154-154 154z"/>
<glyph glyph-name="phone-alt" unicode="&#47;" d="M378 0c-6 0-12 0-18 2-53 4-264 71-354 329-12 35-8 83 12 120 14 29 35 49 61 57 8 2 16 4 21 4 56 0 87-75 97-138l0-4-55-57c2-10 14-43 71-102 57-59 88-69 98-73l65 65 6-2c41-10 122-61 124-63l6-4 0-6c-10-79-61-128-134-128z m-278 492c-4 0-9 0-13-2-28-10-44-31-52-47-15-33-19-75-9-106 96-280 332-315 334-315 6 0 12 0 16 0 61 0 103 39 114 106-17 12-74 45-108 55l-61-65-4 0c-8 0-45 4-118 79-77 79-77 116-77 120l0 4 55 55c-8 45-33 116-77 116z"/>
<glyph glyph-name="upload-file" unicode="&#58;" d="M437 205l-67 70-71-73-70-74 64 0 0-128 160 0 0 128 54 0z m-368-141l0 384 211 0 173-173 0 90-147 147-301 0 0-512 224 0 0 64z"/>
<glyph glyph-name="upload" unicode="&#59;" d="M448 144l0-64-384 0 0 64-64 0 0-128 512 0 0 128z m-291 32l192 0 0 160 64 0-160 160-160-160 64 0z"/>
<glyph glyph-name="video" unicode="&#60;" d="M309 107l-277 0c-17 0-32 15-32 32l0 234c0 17 15 32 32 32l277 0c17 0 32-15 32-32l0-234c0-17-15-32-32-32z m-277 277c-6 0-11-4-11-11l0-234c0-7 5-11 11-11l277 0c7 0 11 4 11 11l0 234c0 7-4 11-11 11z m469-256c-2 0-4 0-4 2l-128 64c-4 0-6 4-6 9l0 106c0 5 2 9 6 9l128 64c4 2 6 2 11 0 2-2 4-4 4-9l0-234c0-5-2-7-4-9-2-2-5-2-7-2z m-117 81l107-53 0 200-107-53z"/>
<glyph glyph-name="close" unicode="&#61;" d="M512 432l-80 80-176-176-176 176-80-80 176-176-176-176 80-80 176 176 176-176 80 80-176 176z"/>
<glyph glyph-name="reorder" unicode="&#62;" d="M475 128l0-37c0-5-1-9-5-12-4-4-8-6-13-6l-402 0c-5 0-9 2-13 6-4 3-5 7-5 12l0 37c0 5 1 9 5 13 4 3 8 5 13 5l402 0c5 0 9-2 13-5 4-4 5-8 5-13z m0 146l0-36c0-5-1-10-5-13-4-4-8-6-13-6l-402 0c-5 0-9 2-13 6-4 3-5 8-5 13l0 36c0 5 1 10 5 13 4 4 8 6 13 6l402 0c5 0 9-2 13-6 4-3 5-8 5-13z m0 147l0-37c0-5-1-9-5-13-4-3-8-5-13-5l-402 0c-5 0-9 2-13 5-4 4-5 8-5 13l0 37c0 5 1 9 5 12 4 4 8 6 13 6l402 0c5 0 9-2 13-6 4-3 5-7 5-12z"/>
<glyph glyph-name="file" unicode="&#64;" d="M439 293l0-229c0-8-3-14-8-19-5-6-12-8-20-8l-310 0c-8 0-15 2-20 8-5 5-8 11-8 19l0 384c0 8 3 14 8 19 5 6 12 8 20 8l155 0 0-155c0-8 3-14 8-19 5-6 12-8 19-8z m-1 36l-145 0 0 146c15-3 28-9 37-19l89-89c10-10 16-22 19-38z"/>
<glyph glyph-name="angle-down" unicode="&#91;" d="M399 302c0-3-1-5-3-7l-133-133c-2-2-5-3-7-3-2 0-5 1-7 3l-133 133c-2 2-3 4-3 7 0 2 1 4 3 6l15 15c1 1 4 2 6 2 3 0 5-1 7-2l112-113 112 113c2 1 4 2 7 2 2 0 5-1 6-2l15-15c2-2 3-4 3-6z"/>
<glyph glyph-name="globe" unicode="&#93;" d="M256 475c40 0 77-9 110-29 34-20 60-46 80-80 20-33 29-70 29-110 0-40-9-77-29-110-20-34-46-60-80-80-33-20-70-29-110-29-40 0-77 9-110 29-34 20-60 46-80 80-20 33-29 70-29 110 0 40 9 77 29 110 20 34 46 60 80 80 33 20 70 29 110 29z m78-148c0-1-1-2-2-3-2-2-3-3-4-3 0 0 1 1 1 2 0 1 1 2 1 3 1 1 1 2 1 2 2 1 4 2 7 4 2 1 7 2 15 3 6 2 11 1 14-3 0 1 1 2 3 4 2 2 3 3 4 3 1 1 2 1 4 2 3 0 4 1 5 2l0 6c-2 0-4 1-5 2-1 2-2 4-2 6 0 0 0-1-1-2 0 1-1 2-2 2-1 0-2 0-3 0-1-1-2-1-3 0-1 0-3 1-4 2-1 1-2 2-2 4-1 3-1 4-1 5-1 1-2 2-3 3-1 1-2 2-3 3 0 0 0 1 0 1-1 1-1 2-1 2-1 1-1 1-1 2-1 0-1 0-2 0-1 0-1 0-2-1-1-1-1-2-2-3-1-1-1-1-1-1-1 0-2 0-2 0-1 0-1 0-1 0-1 0-1-1-2-1 0 0-1-1-1-1-1 0-2-1-3-1-1 0-1 0-2 0 3 1 3 2 0 3-2 0-4 1-5 1 2 0 3 1 2 3 0 2-1 3-2 4l1 0c0 1-1 2-2 2-2 1-3 2-5 3-2 1-3 1-4 2-1 1-5 1-10 2-5 1-8 1-9 0-1-1-1-2-1-3 0 0 0-2 1-4 1-1 1-3 1-3 0-1 0-3-2-4-1-1-2-2-2-3 0-2 2-3 4-5 3-1 4-3 3-6 0-1-2-3-4-4-3-2-4-3-5-4-1-1-1-3 0-5 0-2 1-4 3-5 0 0 0-1 0-1 0 0 0-1-1-1 0-1-1-1-1-1-1-1-2-1-2-1l-1-1c-2-1-4 0-6 2-2 2-3 4-4 7-1 5-3 8-4 9-5 1-8 1-9-1-1 3-5 5-11 8-5 2-11 2-17 1 1 0 1 2 0 4-1 3-3 4-5 4 0 1 1 3 1 5 0 2 0 3 0 4 1 2 2 4 3 6 1 0 1 1 2 3 2 1 2 2 3 3 1 2 1 2 0 2 7-1 12 0 15 3 1 1 2 3 3 5 1 2 2 4 3 5 2 1 3 2 4 2 1-1 2-1 4-2 2-1 3-1 4-1 3-1 4 0 5 3 0 2-1 4-3 5 3 0 3 2 1 5-1 2-1 2-2 3-2 1-5 0-8-2-1 0-1-1 1-2 0 0-1-1-3-3-1-2-3-4-5-5-1-1-3-1-4 2 0 0-1 1-2 3-1 3-1 4-2 4-2 0-3-1-5-4 1 2 0 3-3 4-3 2-5 2-7 3 4 2 3 4-2 7-2 1-4 2-6 2-3 0-5 0-6-1-1-2-1-3-1-4 0-1 0-1 1-2 1-1 2-1 3-2 1 0 2 0 3-1 2 0 2 0 3-1 3-1 3-3 2-4 0 0-1 0-2-1-2 0-3 0-4-1-1 0-1-1-1-1-1-1-1-2 0-4 0-2 0-3-1-4-1 1-2 3-2 5-1 2-2 4-2 5 1-2-1-3-8-2l-2 0c-1 0-3 0-5 0-2-1-4-1-6-1-1 1-3 1-4 3 0 1 0 3 0 5 0 1 1 1 1 1 0 1-1 1-3 3-1 1-2 2-3 2-8-3-17-7-26-12 1 0 2 0 3 1 1 0 2 1 4 2 1 0 2 1 3 1 6 3 10 3 12 2l1 2c3-3 5-6 6-8-2 1-4 1-9 1-4-1-6-3-6-4 1-2 2-4 1-5 0 1-2 2-3 3-1 1-3 2-4 3-1 1-3 1-4 2-3 0-6-1-7-1-28-15-50-36-67-63 1-1 3-2 4-2 0-1 1-1 1-3 0-2 0-3 1-3 0-1 1 0 3 1 2-2 2-4 1-6 0 0 4-2 12-7 4-4 6-6 6-6 1-3 0-4-2-6-1 1-1 2-3 3-2 1-2 2-3 1 0-1 0-3 1-5 0-3 1-4 3-4-2 0-3-1-3-4-1-3-1-7-1-10 0-4 0-6 0-7 0-3 0-6 2-10 2-5 4-6 6-6-2 0 0-5 6-12 1-2 2-3 2-3 1 0 2-1 4-2 1-1 3-2 4-3 1-1 2-2 3-3 0-1 1-3 3-6 1-3 2-6 4-7-1-1 0-3 2-6 2-2 3-4 3-6-1-1-1-1-1-1 0-1 2-2 4-4 3-1 4-2 5-3 0-1 0-2 0-3 0-2 1-3 1-3 1-1 1-1 2-1 1 4-1 10-6 18-3 4-5 7-5 8-1 1-1 2-2 4 0 2-1 4-1 5 0 0 1-1 2-1 0 0 1 0 2-1 1 0 2-1 2-1 1 0 1-1 1-1-1-1-1-3 0-5 1-2 2-4 4-5 1-2 3-3 5-6 1-2 3-3 3-3 1-1 2-3 4-6 2-2 2-4 0-4 2 0 4-1 6-3 2-1 3-3 5-5 1-2 1-4 2-8 0-3 1-5 1-7 1-1 1-2 3-3 1-2 2-3 3-3l5-2c0 0 1-1 4-2 1-1 2-2 5-3 2-2 4-3 6-4 2 0 3-1 5-1 1 0 2 0 4 1 1 0 3 1 4 1 2 0 5-1 8-4 3-4 5-6 6-6 7-4 12-5 16-4-1 0-1 0 0-2 0-1 1-2 2-4 1-2 2-3 3-4 0-1 1-2 1-3 1-1 3-2 5-4 3-2 4-3 5-4 2 0 2 1 2 2 0-1 1-3 2-5 2-3 4-4 6-3 2 0 4 3 4 9-6-3-11-1-14 5 0 0-1 1-1 2-1 0-1 1-1 2-1 1-1 2-1 2 0 1 0 2 0 3 0 0 1 0 1 0 2 0 3 1 3 1 0 1 0 2 0 4-1 2-1 3-1 4-1 1-2 3-4 5-1 3-3 4-3 5-1-2-2-3-5-3-2 1-3 1-4 3 0 0 0-1-1-2 0 0 0-1 0-1-2 0-4 0-4 0 0 0 0 2 0 5 1 3 1 5 1 6 1 1 1 2 2 4 1 1 2 3 2 4 1 1 1 2 1 3 0 2 0 2-1 3-1 1-3 1-5 1-4 0-6-2-7-6-1 0-1-1-1-3-1-1-1-2-2-3 0-1-1-2-2-2-2-1-4-1-7-1-3 0-6 1-7 2-2 1-5 4-6 8-2 4-3 8-3 11 0 1 0 4 1 7 0 3 0 6 0 7 1 2 0 4-1 7 0 1 1 2 2 3 2 1 3 2 3 3 1 0 1 0 2 0 0 1 0 1 1 0 0 0 1 0 1 1 0 0 1 1 1 2 0 0-1 0-1 0-1 1-1 1-1 1 1 0 4 0 8 1 4 1 6 0 8-1 2-2 5-2 6 1 0 0 0 1-1 3 0 1 0 2 0 3 1-5 4-6 8-2 1-1 2-1 5-2 2 0 4 0 5-1 0 0 1-1 2-2 0 0 1-1 1-1 1 0 1 0 2 0 0 1 1 1 2 2 2-3 3-5 4-7 2-7 3-12 5-12 1-1 2-1 3-1 1 0 1 1 1 3 1 1 1 3 0 4 0 1 0 2 0 3l0 8-1 2c-2 1-4 2-5 4-1 1 0 3 1 5 1 2 2 3 4 5 0 0 1 1 2 1 1 1 3 1 5 2 1 1 2 2 3 2 4 4 6 7 4 10 2 0 3 1 4 3-1 0-1 0-2 1-1 0-1 1-2 1-1 1-1 1-1 1 1 1 2 2 0 4 1 1 2 2 2 3 1 2 2 3 3 3 1-2 3-2 6 0 1 1 1 3 0 4 1 2 3 3 6 3 3 1 4 2 5 3 1 0 2 0 2 1 0 0 1 1 1 3 0 2 0 3 0 3 1 1 3 2 5 3 2 1 3 1 3 1l5 4c1 0 1 1 0 1 4-1 7 0 9 3 2 2 1 4-2 6 1 1 1 2 0 2-2 1-3 1-5 2 1 0 2 0 4 0 1 0 2 0 3 0 2 2 2 4-2 5-4 1-8 0-13-3z m-46-251c39 7 72 25 100 54-1 1-2 1-4 1-1 1-3 1-3 1-4 2-6 2-7 3 0 1 0 2-1 3 0 1-1 2-2 3-1 0-2 1-4 2-1 1-2 2-3 2 0 1-1 1-2 2-1 1-1 1-2 1 0 1-1 1-2 2-1 0-2 0-2 0-1 0-2 0-3 0l-1 0c-1 0-1-1-2-1 0 0-1-1-1-1-1 0-1 0-1-1-4 3-8 5-11 6-1 0-2 1-3 1-1 1-2 2-3 2-1 1-2 1-3 1-1 0-2-1-3-2-1-1-1-3-2-4 0-2 0-4 0-4-1 1-1 2 0 5 1 2 1 4 0 5 0 1-1 2-3 1-1 0-2 0-3-1-1 0-2-1-3-2-2-1-2-2-3-2 0 0-1-1-2-2-2-1-2-1-3-2 0-1-1-2-1-3-1-2-1-3-2-3 0 0-1 1-3 1-2 1-3 1-3 2 1-2 1-5 1-10 1-5 1-8 2-11 1-6 0-10-4-14-5-4-8-8-8-11-1-4 0-7 3-7 0-2 0-4-2-6-1-3-2-5-2-6 0-2 0-3 1-5z"/>
<glyph glyph-name="code" unicode="&#94;" d="M165 122l-14-13c-2-2-4-3-6-3-2 0-4 1-6 3l-124 124c-2 2-3 4-3 6 0 2 1 4 3 6l124 124c2 2 4 3 6 3 2 0 4-1 6-3l14-13c1-2 2-4 2-6 0-2-1-4-2-6l-105-105 105-105c1-2 2-4 2-6 0-2-1-4-2-6z m157 284l-99-344c-1-2-2-4-4-5-3-1-5-1-7-1l-16 5c-3 1-4 2-5 4-2 2-2 4-1 6l99 345c1 2 2 4 4 5 3 1 5 1 7 1l16-5c3-1 4-2 5-4 2-2 2-4 1-7z m175-173l-124-124c-2-2-4-3-6-3-2 0-4 1-6 3l-14 13c-1 2-2 4-2 6 0 2 1 4 2 6l105 105-105 105c-1 2-2 4-2 6 0 2 1 4 2 6l14 13c2 2 4 3 6 3 2 0 4-1 6-3l124-124c2-2 3-4 3-6 0-2-1-4-3-6z"/>
<glyph glyph-name="bookmark" unicode="&#95;" d="M406 475c4 0 8 0 12-2 7-3 12-7 15-12 4-5 6-11 6-18l0-368c0-6-2-12-6-18-3-5-8-9-15-11-3-2-8-3-12-3-9 0-17 3-24 10l-126 121-126-121c-7-7-15-10-24-10-4 0-8 1-12 3-7 2-12 6-15 11-4 6-6 12-6 18l0 368c0 7 2 13 6 18 3 5 8 9 15 12 4 2 8 2 12 2z"/>
<glyph glyph-name="play" unicode="&#96;" d="M450 247l-379-211c-5-2-8-2-11-1-4 2-5 6-5 11l0 420c0 5 1 9 5 11 3 1 6 1 11-1l379-211c5-3 7-6 7-9 0-3-2-6-7-9z"/>
<glyph glyph-name="talk-chat" unicode="&#123;" d="M512 256c0-33-11-64-34-92-23-28-54-50-93-66-40-17-83-25-129-25-13 0-27 1-41 2-38-33-82-56-132-69-9-2-20-4-32-6-4 0-7 0-9 3-3 2-4 4-5 8-1 1-1 2 0 4 0 1 0 2 0 2 0 1 1 2 2 3l1 3c0 0 1 1 2 2 2 2 2 3 3 3 1 1 4 5 8 10 5 5 8 8 10 10 2 3 5 6 9 12 4 5 7 10 9 14 3 5 5 10 8 17 3 7 5 14 8 22-30 17-54 38-71 63-17 25-26 51-26 80 0 25 7 48 20 71 14 23 32 42 55 58 23 17 50 30 82 39 31 10 64 15 99 15 46 0 89-8 129-25 39-16 70-38 93-66 23-28 34-59 34-92z"/>
<glyph glyph-name="gears-setting" unicode="&#124;" d="M239 256c0 19-7 35-20 48-13 14-29 20-48 20-19 0-35-6-49-20-13-13-20-29-20-48 0-19 7-35 20-48 14-14 30-20 49-20 19 0 35 6 48 20 13 13 20 29 20 48z m205-137c0 10-4 18-10 24-7 7-15 11-24 11-10 0-18-4-24-11-7-6-11-14-11-24 0-9 4-17 10-24 7-6 15-10 25-10 9 0 17 4 24 10 6 7 10 15 10 24z m0 274c0 9-4 17-10 24-7 6-15 10-24 10-10 0-18-4-24-10-7-7-11-15-11-24 0-10 4-18 10-25 7-6 15-10 25-10 9 0 17 4 24 10 6 7 10 15 10 25z m-103-113l0-49c0-2 0-4-2-5-1-2-2-3-4-3l-41-6c-2-7-5-13-9-21 6-8 14-18 24-30 2-2 2-4 2-6 0-2 0-4-2-5-4-5-11-13-22-24-10-10-17-16-21-16-2 0-3 1-5 2l-31 24c-6-3-13-6-20-8-2-19-4-33-7-41-1-5-3-7-8-7l-49 0c-2 0-4 1-5 2-2 2-3 3-3 5l-6 41c-6 2-13 4-20 8l-32-24c-1-1-3-2-5-2-2 0-4 1-6 3-25 23-38 37-38 42 0 2 1 4 2 5 2 3 5 8 11 14 5 7 9 13 12 17-4 8-7 15-9 22l-41 6c-1 0-3 1-4 3-1 1-2 3-2 5l0 49c0 2 1 4 2 5 1 2 3 3 4 3l41 6c2 7 5 13 9 21-6 8-14 18-24 30-1 2-2 4-2 6 0 2 1 4 2 5 4 5 11 13 22 24 11 10 18 16 21 16 2 0 4-1 6-2l30-24c6 3 13 6 21 8 2 19 4 33 6 41 1 5 4 7 8 7l49 0c2 0 4-1 6-2 1-2 2-3 2-5l7-41c6-2 12-4 20-8l31 24c1 1 3 2 5 2 2 0 4-1 6-3 26-23 38-37 38-42 0-2 0-4-1-5-3-3-6-8-12-15-5-6-9-12-12-16 4-8 7-16 9-22l41-6c2 0 3-1 4-3 2-1 2-3 2-5z m171-142l0-37c0-3-13-6-40-8-2-5-5-10-8-14 9-20 14-33 14-37 0-1 0-1-1-2-22-13-33-19-33-19-2 0-6 4-13 13-6 8-11 14-13 18-4-1-7-1-8-1-2 0-5 0-8 1-3-4-8-10-14-18-7-9-11-13-13-13 0 0-11 6-33 19 0 1-1 1-1 2 0 4 5 17 14 37-3 4-6 9-8 14-27 2-40 5-40 8l0 37c0 3 13 6 40 8 2 6 5 10 8 14-9 20-14 33-14 37 0 1 1 1 1 2 1 0 4 2 10 5 5 3 10 6 15 9 5 3 8 5 8 5 2 0 6-5 13-13 6-8 11-14 14-18 3 1 6 1 8 1 1 0 4 0 8-1 9 13 17 23 24 30l2 1c0 0 11-7 33-19 1-1 1-1 1-2 0-4-5-17-14-37 3-4 6-8 8-14 27-2 40-5 40-8z m0 273l0-37c0-3-13-6-40-8-2-5-5-10-8-14 9-20 14-33 14-37 0-1 0-1-1-2-22-13-33-19-33-19-2 0-6 4-13 13-6 8-11 14-13 18-4-1-7-1-8-1-2 0-5 0-8 1-3-4-8-10-14-18-7-9-11-13-13-13 0 0-11 6-33 19 0 1-1 1-1 2 0 4 5 17 14 37-3 4-6 9-8 14-27 2-40 5-40 8l0 37c0 3 13 6 40 8 2 6 5 10 8 14-9 20-14 33-14 37 0 1 1 1 1 2 1 0 4 2 10 5 5 4 10 7 15 9 5 3 8 5 8 5 2 0 6-4 13-13 6-8 11-14 14-18 3 1 6 1 8 1 1 0 4 0 8-1 9 13 17 23 24 30l2 1c0 0 11-7 33-19 1-1 1-1 1-2 0-4-5-17-14-37 3-4 6-8 8-14 27-2 40-5 40-8z"/>
<glyph glyph-name="credit-card" unicode="&#125;" d="M469 461c12 0 22-4 30-13 9-8 13-18 13-30l0-324c0-12-4-22-13-30-8-9-18-13-30-13l-426 0c-12 0-22 4-30 13-9 8-13 18-13 30l0 324c0 12 4 22 13 30 8 9 18 13 30 13z m-426-34c-3 0-5-1-6-3-2-2-3-4-3-6l0-60 444 0 0 60c0 2-1 4-3 6-1 2-3 3-6 3z m426-342c3 0 5 1 6 3 2 2 3 4 3 6l0 162-444 0 0-162c0-2 1-4 3-6 1-2 3-3 6-3z m-401 34l0 35 69 0 0-35z m103 0l0 35 102 0 0-35z"/>
<glyph glyph-name="caret-right" unicode="&#126;" d="M329 256c0-5-2-9-5-13l-128-128c-4-3-8-5-13-5-5 0-9 2-13 5-4 4-5 8-5 13l0 256c0 5 1 9 5 13 4 3 8 5 13 5 5 0 9-2 13-5l128-128c3-4 5-8 5-13z"/>
<glyph glyph-name="angle-left" unicode="&#92;" d="M344 357c0-3-1-5-3-7l-112-112 112-113c2-1 3-4 3-6 0-3-1-5-3-7l-14-14c-2-2-5-3-7-3-2 0-5 1-7 3l-133 133c-2 2-3 4-3 7 0 2 1 4 3 6l133 133c2 2 5 3 7 3 2 0 5-1 7-3l14-14c2-2 3-4 3-6z"/>
<glyph glyph-name="angle-right" unicode="&#57344;" d="M335 238c0-3-1-5-3-7l-133-133c-2-2-5-3-7-3-2 0-5 1-7 3l-14 14c-2 2-3 4-3 7 0 2 1 5 3 6l112 113-112 112c-2 2-3 4-3 7 0 2 1 4 3 6l14 14c2 2 5 3 7 3 2 0 5-1 7-3l133-133c2-2 3-4 3-6z"/>
<glyph glyph-name="angle-up" unicode="&#57345;" d="M399 174c0-3-1-5-3-7l-15-14c-1-2-4-3-6-3-3 0-5 1-7 3l-112 112-112-112c-2-2-4-3-7-3-2 0-5 1-6 3l-15 14c-2 2-3 4-3 7 0 2 1 4 3 6l133 133c2 2 5 3 7 3 2 0 5-1 7-3l133-133c2-2 3-4 3-6z"/>
<glyph glyph-name="chat" unicode="&#57346;" d="M256 402c-39 0-75-6-109-20-34-13-61-31-81-53-19-23-29-47-29-73 0-21 6-42 20-61 14-19 33-36 58-50l24-14-7-28c-5-17-12-34-20-49 29 12 55 28 78 49l13 11 16-2c13-2 25-2 37-2 39 0 75 6 109 20 34 13 61 31 81 53 19 23 29 47 29 73 0 26-10 50-29 73-20 22-47 40-81 53-34 14-70 20-109 20z m256-146c0-33-11-64-34-92-23-28-54-50-93-66-40-17-83-25-129-25-13 0-27 1-41 2-38-33-82-56-132-69-9-2-20-4-32-6l-2 0c-3 0-5 1-8 3-2 2-3 5-4 8-1 1-1 2 0 4 0 1 0 2 0 2 0 1 1 2 2 3l1 3c0 0 1 1 2 2 2 2 2 3 3 3 1 1 4 5 8 10 5 5 8 8 10 10 2 3 5 6 9 12 4 5 7 10 9 14 3 5 5 10 8 17 3 7 5 14 8 22-30 17-54 38-71 63-17 25-26 51-26 80 0 33 11 64 34 92 23 28 54 50 93 66 40 17 83 25 129 25 46 0 89-8 129-25 39-16 70-38 93-66 23-28 34-59 34-92z"/>
<glyph glyph-name="cog-gear" unicode="&#57347;" d="M329 256c0 20-7 37-21 52-15 14-32 21-52 21-20 0-37-7-52-21-14-15-21-32-21-52 0-20 7-37 21-52 15-14 32-21 52-21 20 0 37 7 52 21 14 15 21 32 21 52z m146 31l0-63c0-3 0-5-2-7-1-2-3-3-6-4l-52-8c-4-10-8-19-12-26 7-9 17-22 31-39 2-2 3-5 3-7 0-3-1-5-3-7-5-7-14-17-28-31-14-13-23-20-27-20-2 0-5 1-7 3l-40 31c-8-5-17-8-26-11-3-26-6-44-8-53-1-6-5-8-10-8l-64 0c-2 0-5 0-7 2-2 2-3 4-3 6l-8 53c-9 3-18 6-26 10l-40-30c-2-2-4-3-7-3-3 0-5 1-7 3-24 22-40 38-47 48-2 2-2 4-2 7 0 2 0 4 2 6 3 4 8 11 14 19 7 9 12 16 16 21-5 9-9 19-12 28l-52 8c-3 0-5 1-6 3-2 2-2 4-2 7l0 63c0 3 0 5 2 7 1 2 3 3 5 4l53 8c3 8 7 17 12 26-8 11-18 24-31 39-2 3-3 5-3 7 0 2 1 4 3 7 5 7 14 17 28 30 14 14 23 21 27 21 2 0 5-1 7-3l40-31c8 5 17 8 26 11 3 26 6 44 8 53 1 6 5 8 10 8l64 0c2 0 5 0 7-2 2-2 3-4 3-6l8-53c9-3 18-6 26-10l40 30c2 2 4 3 7 3 3 0 5-1 7-3 25-23 41-39 47-49 2-1 2-3 2-6 0-2 0-4-2-6-3-4-8-11-14-19-7-9-12-16-16-21 5-9 9-18 12-28l52-8c3 0 5-1 6-3 2-2 2-4 2-7z"/>
<glyph glyph-name="external-link" unicode="&#57348;" d="M402 247l0-92c0-22-8-42-24-58-16-16-35-24-58-24l-238 0c-22 0-42 8-58 24-16 16-24 36-24 58l0 238c0 23 8 42 24 58 16 16 36 24 58 24l201 0c3 0 5 0 7-2 2-2 3-4 3-7l0-18c0-3-1-5-3-7-2-1-4-2-7-2l-201 0c-12 0-23-5-32-14-9-9-13-19-13-32l0-238c0-12 4-23 13-32 9-9 20-13 32-13l238 0c13 0 23 4 32 13 9 9 14 20 14 32l0 92c0 3 1 5 2 6 2 2 4 3 7 3l18 0c3 0 5-1 7-3 1-1 2-3 2-6z m110 247l0-147c0-5-2-9-5-12-4-4-8-6-13-6-5 0-10 2-13 6l-50 50-187-186c-2-2-4-3-6-3-3 0-5 1-7 3l-32 32c-2 2-3 4-3 7 0 2 1 4 3 6l186 187-50 50c-4 3-6 8-6 13 0 5 2 9 6 13 3 3 7 5 12 5l147 0c5 0 9-2 13-5 3-4 5-8 5-13z"/>
<glyph glyph-name="files" unicode="&#57349;" d="M485 402c7 0 14-2 19-8 5-5 8-12 8-19l0-348c0-7-3-14-8-19-5-5-12-8-19-8l-275 0c-7 0-14 3-19 8-5 5-8 12-8 19l0 83-156 0c-7 0-14 2-19 8-5 5-8 12-8 19l0 192c0 8 2 16 6 25 4 9 8 17 13 22l117 117c5 5 13 9 22 13 9 4 17 6 25 6l119 0c7 0 14-3 19-8 5-5 8-12 8-19l0-94c13 7 25 11 37 11z m-156-61l-85-85 85 0z m-183 110l-85-85 85 0z m56-185l91 91 0 118-110 0 0-118c0-8-3-15-8-20-5-5-12-8-20-8l-118 0 0-183 146 0 0 73c0 8 2 16 6 26 3 9 8 16 13 21z m273-229l0 329-109 0 0-119c0-8-3-14-8-20-6-5-12-8-20-8l-119 0 0-182z"/>
<glyph glyph-name="talk-chat-1" unicode="&#57350;" d="M402 293c0-27-9-51-27-74-17-22-42-40-73-53-31-13-64-20-101-20-16 0-33 2-50 5-24-17-50-29-80-37-6-1-15-3-24-4l-1 0c-2 0-4 0-6 2-2 2-3 4-3 6 0 1 0 1 0 2 0 1 0 1 0 2 0 0 0 1 0 1l1 2c0 0 0 0 1 1 1 1 1 2 1 2 0 0 1 0 1 1 1 1 2 2 2 2 1 1 3 3 6 7 4 3 6 6 8 8 1 2 3 5 6 8 3 4 5 8 7 11 2 4 4 8 6 13-24 14-42 31-56 51-13 20-20 41-20 64 0 26 9 51 27 73 18 22 42 40 73 53 31 13 65 20 101 20 37 0 70-7 101-20 31-13 56-31 73-53 18-22 27-47 27-73z m110-74c0-22-7-44-20-64-14-20-32-36-56-50 2-5 4-9 6-13 2-4 4-7 7-11 3-3 5-6 6-8 2-2 4-5 8-8 3-4 5-6 6-8 1 0 1 0 2-1 0-1 1-1 1-1 0-1 1-1 1-2 0 0 1-1 1-1l1-2c0 0 0 0 0-1 1-2 1-2 0-2 0 0 0-1 0-2 0-3-2-5-4-6-1-2-4-3-6-2-9 1-18 2-24 4-30 8-56 20-80 37-17-3-34-5-50-5-52 0-97 13-135 38 11-1 19-1 25-1 31 0 60 4 88 13 29 8 54 20 76 36 24 18 42 38 55 61 12 23 19 47 19 73 0 14-2 29-7 43 25-14 44-30 59-51 14-20 21-42 21-66z"/>
<glyph glyph-name="filter" unicode="&#57351;" d="M456 428c3-8 2-15-4-20l-141-141 0-212c0-8-4-14-11-17-3-1-5-1-7-1-6 0-10 1-13 5l-73 73c-4 4-6 8-6 13l0 139-141 141c-6 5-7 12-4 20 4 7 9 11 17 11l366 0c8 0 13-4 17-11z"/>
<glyph glyph-name="download-1" unicode="&#57352;" d="M384 128c0 5-2 9-5 13-4 3-8 5-13 5-5 0-10-2-13-5-4-4-6-8-6-13 0-5 2-9 6-13 3-3 8-5 13-5 5 0 9 2 13 5 3 4 5 8 5 13z m73 0c0 5-2 9-5 13-4 3-8 5-13 5-5 0-9-2-13-5-4-4-5-8-5-13 0-5 1-9 5-13 4-3 8-5 13-5 5 0 9 2 13 5 3 4 5 8 5 13z m37 64l0-91c0-8-3-15-8-20-6-5-12-8-20-8l-420 0c-8 0-14 3-20 8-5 5-8 12-8 20l0 91c0 8 3 14 8 19 6 6 12 8 20 8l133 0 38-38c11-11 24-16 39-16 15 0 28 5 39 16l39 38 132 0c8 0 14-2 20-8 5-5 8-11 8-19z m-93 163c3-8 2-15-4-20l-128-128c-4-4-8-6-13-6-5 0-9 2-13 6l-128 128c-6 5-7 12-4 20 3 7 9 11 17 11l73 0 0 128c0 5 2 9 6 13 3 3 7 5 12 5l74 0c5 0 9-2 12-5 4-4 6-8 6-13l0-128 73 0c8 0 14-4 17-11z"/>
<glyph glyph-name="search" unicode="&#57353;" d="M347 274c0 36-12 66-37 91-25 25-55 37-91 37-35 0-65-12-90-37-25-25-38-55-38-91 0-35 13-65 38-90 25-25 55-38 90-38 36 0 66 13 91 38 25 25 37 55 37 90z m147-237c0-10-4-19-11-26-7-7-16-11-26-11-10 0-19 4-26 11l-98 98c-34-24-72-36-114-36-27 0-53 5-78 16-25 11-46 25-64 43-18 18-32 39-43 64-10 25-16 51-16 78 0 28 6 54 16 78 11 25 25 47 43 65 18 18 39 32 64 43 25 10 51 15 78 15 28 0 54-5 79-15 24-11 46-25 64-43 18-18 32-40 43-65 10-24 16-50 16-78 0-42-12-80-36-114l98-98c7-7 11-15 11-25z"/>
<glyph glyph-name="refresh" unicode="&#57354;" d="M468 210c0-1 0-1 0-2-12-51-38-92-77-124-38-32-84-47-136-47-28 0-55 5-81 15-26 11-49 26-69 45l-37-37c-4-3-8-5-13-5-5 0-9 2-13 5-4 4-5 8-5 13l0 128c0 5 1 9 5 13 4 4 8 5 13 5l128 0c5 0 9-1 13-5 3-4 5-8 5-13 0-5-2-9-5-13l-39-39c13-12 28-22 46-29 17-7 35-10 53-10 26 0 49 6 71 18 23 13 40 30 54 51 2 4 7 15 15 34 1 4 4 6 8 6l55 0c3 0 5 0 7-2 1-2 2-4 2-7z m7 229l0-128c0-5-1-9-5-13-4-4-8-5-13-5l-128 0c-5 0-9 1-13 5-3 4-5 8-5 13 0 5 2 9 5 13l40 39c-28 26-62 39-100 39-26 0-49-6-71-18-23-13-40-30-54-51-2-4-7-15-15-34-1-4-4-6-8-6l-57 0c-3 0-5 0-7 2-1 2-2 4-2 7l0 2c12 51 38 92 77 124 39 32 85 47 137 47 28 0 55-5 81-15 26-11 50-26 70-45l37 37c4 3 8 5 13 5 5 0 9-2 13-5 4-4 5-8 5-13z"/>
<glyph glyph-name="resize-expand" unicode="&#57355;" d="M252 210c0-2-1-4-3-6l-94-95 41-41c3-4 5-8 5-13 0-5-2-9-5-13-4-4-8-5-13-5l-128 0c-5 0-9 1-13 5-4 4-5 8-5 13l0 128c0 5 1 9 5 13 4 3 8 5 13 5 5 0 9-2 13-5l41-41 95 94c2 2 4 3 6 3 3 0 5-1 7-3l32-32c2-2 3-4 3-7z m223 247l0-128c0-5-1-9-5-13-4-3-8-5-13-5-5 0-9 2-13 5l-41 41-95-94c-2-2-4-3-6-3-3 0-5 1-7 3l-32 32c-2 2-3 4-3 7 0 2 1 4 3 6l94 95-41 41c-3 4-5 8-5 13 0 5 2 9 5 13 4 4 8 5 13 5l128 0c5 0 9-1 13-5 4-4 5-8 5-13z"/>
<glyph glyph-name="resize-down" unicode="&#57356;" d="M256 238l0-128c0-5-2-10-5-13-4-4-8-6-13-6-5 0-10 2-13 6l-41 41-95-95c-2-2-4-3-7-3-2 0-4 1-6 3l-33 33c-2 2-3 4-3 6 0 3 1 5 3 7l95 95-41 41c-4 3-6 8-6 13 0 5 2 9 6 13 3 3 8 5 13 5l128 0c5 0 9-2 13-5 3-4 5-8 5-13z m216 192c0-3-1-5-3-7l-95-95 41-41c4-3 6-8 6-13 0-5-2-9-6-13-3-3-8-5-13-5l-128 0c-5 0-9 2-13 5-3 4-5 8-5 13l0 128c0 5 2 10 5 13 4 4 8 6 13 6 5 0 10-2 13-6l41-41 95 95c2 2 4 3 7 3 2 0 4-1 6-3l33-33c2-2 3-4 3-6z"/>
<glyph glyph-name="caret-left" unicode="&#57357;" d="M347 384l0-256c0-5-1-9-5-13-4-3-8-5-13-5-5 0-9 2-13 5l-128 128c-3 4-5 8-5 13 0 5 2 9 5 13l128 128c4 3 8 5 13 5 5 0 9-2 13-5 4-4 5-8 5-13z"/>
<glyph glyph-name="caret-down" unicode="&#57358;" d="M402 201c0-5-2-9-5-13l-128-128c-4-3-8-5-13-5-5 0-9 2-13 5l-128 128c-3 4-5 8-5 13 0 5 2 9 5 13 4 4 8 5 13 5l256 0c5 0 9-1 13-5 3-4 5-8 5-13z"/>
<glyph glyph-name="caret-up" unicode="&#57359;" d="M402 311c0-5-2-9-5-13-4-4-8-5-13-5l-256 0c-5 0-9 1-13 5-3 4-5 8-5 13 0 5 2 9 5 13l128 128c4 3 8 5 13 5 5 0 9-2 13-5l128-128c3-4 5-8 5-13z"/>
<glyph glyph-name="signout" unicode="&#57360;" d="M201 101c0-1 0-3 0-6 1-3 1-6 1-8-1-2-1-4-1-6-1-3-2-5-3-6-2-1-4-2-6-2l-91 0c-23 0-42 8-59 24-16 16-24 36-24 58l0 202c0 22 8 42 24 58 17 16 36 24 59 24l91 0c2 0 5-1 6-3 2-2 3-4 3-6 0-1 0-3 0-6 1-3 1-6 1-8-1-2-1-4-1-6-1-3-2-5-3-6-2-1-4-2-6-2l-91 0c-13 0-24-4-33-13-9-9-13-20-13-32l0-202c0-12 4-23 13-32 9-9 20-13 33-13l89 0c0 0 1 0 3-1 2 0 3 0 3 0 0-1 1-1 3-2 1-1 2-2 2-3-1-1 0-2 0-3z m265 155c0-5-2-9-5-13l-156-155c-3-4-7-6-12-6-5 0-10 2-13 6-4 3-6 8-6 13l0 82-128 0c-5 0-9 2-13 5-3 4-5 8-5 13l0 110c0 5 2 9 5 13 4 3 8 5 13 5l128 0 0 82c0 5 2 10 6 13 3 4 8 6 13 6 5 0 9-2 12-6l156-155c3-4 5-8 5-13z"/>
<glyph glyph-name="cloud" unicode="&#57361;" d="M512 188c0-29-10-53-30-73-20-20-44-30-72-30l-291 0c-32 0-61 12-84 35-23 24-35 52-35 85 0 23 6 45 19 64 13 20 29 34 50 44-1 5-1 9-1 11 0 38 14 70 40 97 27 26 59 40 97 40 28 0 53-8 76-24 23-15 40-36 50-61 13 11 27 17 44 17 19 0 35-7 49-20 13-14 20-30 20-49 0-13-4-25-11-37 23-5 42-17 57-35 15-19 22-40 22-64z"/>
<glyph glyph-name="bar-chart" unicode="&#57362;" d="M137 222l0-103-69 0 0 103z m102 136l0-239-68 0 0 239z m102-68l0-171-68 0 0 171z m103 103l0-274-69 0 0 274z m34-299l0 324c0 2-1 4-3 6-1 2-3 3-6 3l-426 0c-3 0-5-1-6-3-2-2-3-4-3-6l0-324c0-2 1-4 3-6 1-2 3-3 6-3l426 0c3 0 5 1 6 3 2 2 3 4 3 6z m34 324l0-324c0-12-4-22-13-30-8-9-18-13-30-13l-426 0c-12 0-22 4-30 13-9 8-13 18-13 30l0 324c0 12 4 22 13 30 8 9 18 13 30 13l426 0c12 0 22-4 30-13 9-8 13-18 13-30z"/>
<glyph glyph-name="wrench" unicode="&#57363;" d="M128 91c0 5-2 10-5 13-4 4-8 6-13 6-5 0-10-2-13-6-4-3-6-8-6-13 0-5 2-9 6-12 3-4 8-6 13-6 5 0 9 2 13 6 3 3 5 7 5 12z m184 120l-195-194c-7-7-15-11-26-11-9 0-18 4-26 11l-30 30c-7 7-11 16-11 26 0 10 4 19 11 26l195 195c7-19 18-35 32-50 15-14 31-25 50-33z m181 125c0-8-2-18-6-31-9-25-25-46-47-62-23-16-47-24-74-24-36 0-66 13-91 38-25 25-37 55-37 90 0 36 12 66 37 91 25 25 55 37 91 37 11 0 22-1 34-4 13-3 23-8 31-14 3-2 5-4 5-8 0-3-2-5-5-8l-84-48 0-64 56-30c1 0 8 5 22 13 14 9 27 17 39 24 12 6 18 10 20 10 3 0 5-1 7-3 1-2 2-4 2-7z"/>
<glyph glyph-name="heart" unicode="&#57364;" d="M256 37c-5 0-9 1-13 5l-178 172c-2 1-4 4-8 7-3 4-8 10-16 19-7 9-13 18-19 28-6 9-11 21-15 34-5 14-7 27-7 40 0 42 12 74 36 98 24 24 58 35 101 35 11 0 23-2 36-6 12-4 23-9 34-16 11-7 20-14 27-20 8-6 15-12 22-19 7 7 14 13 22 19 7 6 16 13 27 20 11 7 22 12 34 16 13 4 25 6 36 6 43 0 77-11 101-35 24-24 36-56 36-98 0-42-22-85-65-129l-178-171c-4-4-8-5-13-5z"/>
<glyph glyph-name="pencil" unicode="&#57365;" d="M140 73l26 26-67 67-26-26 0-30 37 0 0-37z m150 265c0 4-2 7-7 7-1 0-3-1-4-2l-155-155c-2-2-2-3-2-5 0-4 2-6 6-6 2 0 4 0 5 2l155 154c1 2 2 3 2 5z m-16 55l119-119-238-237-118 0 0 118z m195-27c0-10-3-19-10-26l-48-47-118 118 47 48c7 7 15 10 26 10 10 0 18-3 26-10l67-67c7-8 10-16 10-26z"/>
<glyph glyph-name="minus" unicode="&#57366;" d="M457 302l0-55c0-8-3-14-8-20-5-5-12-8-19-8l-348 0c-7 0-14 3-19 8-5 6-8 12-8 20l0 55c0 7 3 14 8 19 5 5 12 8 19 8l348 0c7 0 14-3 19-8 5-5 8-12 8-19z"/>
<glyph glyph-name="ploticon" unicode="&#57367;" d="M0 128l512 0 0-128-512 0z m225 384l63 0 0-340-63 0z m79-336l-48-48-160 160 48 48z m-48-48l-48 48 160 160 48-48z"/>
<glyph glyph-name="ploticon-1" unicode="&#57368;" d="M0 288c20 0 38 4 48 16 10 12 16 34 16 64l0 48c0 34 13 56 29 72 16 16 41 24 76 24l23 0 0-64-2 0c-24 0-39-3-44-9-5-6-8-24-8-52 0-36-3-63-8-82-5-18-14-35-34-49 20-14 29-31 34-49 5-19 8-46 8-82 0-29 3-46 8-52 5-6 20-9 44-9l2 0 0-64-23 0c-35 0-60 7-76 24-16 16-29 38-29 72l0 48c0 31-6 52-16 64-10 12-28 16-48 16z m512-64c-20 0-38-4-48-16-10-12-16-33-16-64l0-48c0-34-10-56-26-72-16-17-41-24-76-24l-26 0 0 64 5 0c24 0 39 3 44 9 5 6 8 23 8 52 0 36 3 63 8 82 5 18 11 35 31 49-20 14-26 31-31 49-5 19-8 46-8 82 0 28-3 46-8 52-5 6-20 9-44 9l-5 0 0 64 26 0c35 0 60-8 76-24 16-16 26-38 26-72l0-48c0-30 6-52 16-64 10-12 28-16 48-16z"/>
<glyph glyph-name="collaborator-icon" unicode="&#57369;" d="M160 307c0 6 2 10 4 13 0 0 0 1 1 2-2 6-3 11-3 17l-8 1-5 5c-20 12-41 4-52-1-17-5-27-29-20-63 1-6-3-9-3-12 1-7 1-24 7-28 1 0 6-1 6-1 0-7 1-14 2-21 1-4 5-5 6-11l-5-1c-2-5-6-15-11-18-3-1-7-2-10-3-13-5-27-11-39-16-12-5-25-7-29-19 0-8-1-27-1-38l57 0c0 4 0 7 0 11 0 7 0 14 0 18l0 3 1 2c7 19 24 25 39 30 3 2 7 3 10 4 7 3 14 6 21 9 11 5 22 10 32 14 0 1-1 2-1 3-3 0-5 0-7 1 0 7 5 8 7 13 1 5 0 12 2 17 2 3 6 3 8 6 2 2 3 7 4 10 0 2 0 3 0 5-10 10-12 30-13 43 0 2 0 3 0 5z m351-156c-4 12-17 14-29 19-13 5-26 11-39 16-3 1-7 2-11 3-4 3-8 13-10 18-3 0-5 1-7 1 0 7 5 8 7 14 1 5 0 11 2 16 2 3 6 3 8 6 2 3 3 7 4 10 1 6 2 13-1 19-2 3-3 4-3 7 0 5 2 21 2 24 0 9 0 17-3 25 0 0-2 8-6 10l-8 1-5 5c-20 12-41 4-53-1-6-2-11-7-15-14 0-2-1-4 0-5 0-1 0-1 0-1 0 0 0-1 0-1 1-1 1-2 2-4 6-12 4-26 3-35-1-5-3-14-8-20-1-2-2-3-4-4 1-7 3-16 7-19 1 0 5-1 5-1 1-7 2-14 2-20 2-5 6-5 7-12l-5-1c-1-1-1-2-1-3 10-4 21-9 32-14 7-3 14-6 21-9 3-1 7-2 10-4 15-4 32-11 39-30l1-2 0-3c0-4 0-11 0-18 0-4 0-7 0-11l57 0c0 11-1 30-1 38z m-193 241c3-12 3-23 3-35 0-5-3-27-2-33 0-6 2-6 4-11 4-8 2-19 1-27-1-4-3-10-5-14-3-4-9-4-11-8-4-7-2-16-4-23-2-8-9-9-9-19 3-1 6-1 9-2 3-6 9-20 15-24 5-2 10-3 15-4 18-8 37-16 55-24 16-6 35-9 41-26 0-11 1-38 1-53l-350 0c0 15 1 42 1 53 6 17 25 20 41 26 18 8 38 16 55 24 5 1 10 2 15 4 6 4 12 18 15 24l7 2c-1 9-7 10-9 16-1 10-2 19-3 29 0-1-7 1-8 2-9 5-9 29-10 39 0 4 6 8 4 16-10 49 5 81 28 89 16 6 46 18 73 1l7-6 11-2c6-3 10-14 10-14z"/>
<glyph glyph-name="embed-icon" unicode="&#57370;" d="M69 259l92 92-34 34-127-126 127-127 34 34z m334 109l-18 17-34-34 18-17 74-75-92-93 34-34 127 127z m-164-284l-48 0 89 344 48 0z"/>
<glyph glyph-name="link-icon" unicode="&#57371;" d="M276 157c-33 0-66 13-91 38l-4 4 56 57 4-4c10-10 22-15 35-15 13 0 25 5 35 15l92 92c10 10 15 22 15 35 0 13-5 25-15 35l-4 4c-9 9-22 14-34 14-13 0-26-5-35-14l-38-38c-16-16-41-16-57 0-15 15-15 41 0 56l38 38c25 25 59 38 92 38 33 0 66-13 91-38l4-4c25-25 38-58 38-91 0-33-13-66-38-91l-93-93c-25-25-58-38-91-38z m-129-157c-33 0-66 13-91 38l-4 4c-25 25-38 58-38 91 0 33 13 66 38 91l93 93c25 25 58 38 91 38 26 0 52-8 74-24 4-1 7-4 10-7l11-11-56-57-4 4c-10 10-22 15-35 15-13 0-25-5-35-15l-92-92c-10-10-15-22-15-35 0-13 5-25 15-35l4-4c9-9 22-14 34-14 13 0 26 5 35 14l40 40c16 16 41 16 57 0 15-15 15-41 0-56l-40-40c-26-25-59-38-92-38z"/>
<glyph glyph-name="fork-edit" unicode="&#57373;" d="M352 416c-35 0-64-29-64-64 0-24 13-44 32-55l0-9c0-32-32-64-64-64-26 0-47-6-64-15l0 152c19 11 32 31 32 55 0 35-28 64-64 64-35 0-64-29-64-64 0-24 13-44 32-55l0-210c-19-11-32-31-32-55 0-35 29-64 64-64 36 0 64 29 64 64 0 17-6 32-17 44 10 11 25 20 49 20 64 0 128 64 128 128l0 9c19 11 32 32 32 55 0 36-28 64-64 64z m-192 32c18 0 32-15 32-32 0-18-14-32-32-32-17 0-32 14-32 32 0 17 15 32 32 32z m0-384c-17 0-32 14-32 32 0 17 15 32 32 32 18 0 32-15 32-32 0-18-14-32-32-32z m192 256c-17 0-32 14-32 32 0 17 15 32 32 32 18 0 32-15 32-32 0-18-14-32-32-32z"/>
<glyph glyph-name="rotate-left" unicode="&#63;" d="M475 256c0-30-5-58-17-85-12-27-27-51-47-70-19-20-43-35-70-47-27-12-55-17-85-17-33 0-64 6-93 20-30 14-55 34-76 59-1 2-2 4-2 6 0 3 1 4 3 6l39 39c2 2 4 3 7 3 3 0 5-2 7-3 13-19 31-33 51-42 20-10 41-15 64-15 20 0 39 4 57 11 18 8 33 18 46 32 14 13 24 28 32 46 7 18 11 37 11 57 0 20-4 39-11 57-8 18-18 33-32 46-13 14-28 24-46 32-18 7-37 11-57 11-19 0-37-3-54-10-17-7-32-16-45-29l39-39c6-6 7-13 4-20-4-8-9-11-17-11l-128 0c-5 0-9 1-13 5-4 4-5 8-5 13l0 128c0 8 3 13 11 17 7 3 14 2 20-4l37-37c20 19 44 34 70 45 26 10 53 15 81 15 30 0 58-5 85-17 27-12 51-27 70-47 20-19 35-43 47-70 12-27 17-55 17-85z"/>
<glyph glyph-name="plot-pie" unicode="&#57372;" d="M231 472c-128-1-231-105-231-232 0-129 104-233 232-233 56 0 106 19 146 51l-147 173z m270-209c0 3 0 6 0 9 0 129-104 233-233 233 0 0-1 0-1 0l0-242z m11-35l-233 0 146-173c51 41 85 103 87 173z"/>
<glyph glyph-name="rotate-right" unicode="&#57374;" d="M475 256c0-30-5-58-17-85-12-27-27-51-47-70-19-20-43-35-70-47-27-12-55-17-85-17-33 0-64 6-93 20-30 14-55 34-76 59-1 2-2 4-2 6 0 3 1 4 3 6l39 39c2 2 4 3 7 3 3 0 5-2 7-3 13-19 31-33 51-42 20-10 41-15 64-15 20 0 39 4 57 11 18 8 33 18 46 32 14 13 24 28 32 46 7 18 11 37 11 57 0 20-4 39-11 57-8 18-18 33-32 46-13 14-28 24-46 32-18 7-37 11-57 11-19 0-37-3-54-10-17-7-32-16-45-29l39-39c6-6 7-13 4-20-4-8-9-11-17-11l-128 0c-5 0-9 1-13 5-4 4-5 8-5 13l0 128c0 8 3 13 11 17 7 3 14 2 20-4l37-37c20 19 44 34 70 45 26 10 53 15 81 15 30 0 58-5 85-17 27-12 51-27 70-47 20-19 35-43 47-70 12-27 17-55 17-85z"/>
<glyph glyph-name="align-center" unicode="&#57375;" d="M512 128l0-37c0-5-2-9-5-12-4-4-8-6-13-6l-476 0c-5 0-9 2-13 6-3 3-5 7-5 12l0 37c0 5 2 9 5 13 4 3 8 5 13 5l476 0c5 0 9-2 13-5 3-4 5-8 5-13z m0 110l0-37c0-5-2-9-5-13-4-3-8-5-13-5l-476 0c-5 0-9 2-13 5-3 4-5 8-5 13l0 37c0 5 2 9 5 13 4 3 8 5 13 5l476 0c5 0 9-2 13-5 3-4 5-8 5-13z m0 109l0-36c0-5-2-9-5-13-4-4-8-5-13-5l-476 0c-5 0-9 1-13 5-3 4-5 8-5 13l0 36c0 5 2 10 5 13 4 4 8 6 13 6l476 0c5 0 9-2 13-6 3-3 5-8 5-13z m0 110l0-36c0-5-2-10-5-13-4-4-8-6-13-6l-476 0c-5 0-9 2-13 6-3 3-5 8-5 13l0 36c0 5 2 9 5 13 4 4 8 5 13 5l476 0c5 0 9-1 13-5 3-4 5-8 5-13z"/>
<glyph glyph-name="align-left" unicode="&#57376;" d="M512 128l0-37c0-5-2-9-5-12-4-4-8-6-13-6l-476 0c-5 0-9 2-13 6-3 3-5 7-5 12l0 37c0 5 2 9 5 13 4 3 8 5 13 5l476 0c5 0 9-2 13-5 3-4 5-8 5-13z m-110 110l0-37c0-5-2-9-5-13-4-3-8-5-13-5l-366 0c-5 0-9 2-13 5-3 4-5 8-5 13l0 37c0 5 2 9 5 13 4 3 8 5 13 5l366 0c5 0 9-2 13-5 3-4 5-8 5-13z m73 109l0-36c0-5-1-9-5-13-4-4-8-5-13-5l-439 0c-5 0-9 1-13 5-3 4-5 8-5 13l0 36c0 5 2 10 5 13 4 4 8 6 13 6l439 0c5 0 9-2 13-6 4-3 5-8 5-13z m-109 110l0-36c0-5-2-10-6-13-3-4-8-6-13-6l-329 0c-5 0-9 2-13 6-3 3-5 8-5 13l0 36c0 5 2 9 5 13 4 4 8 5 13 5l329 0c5 0 10-1 13-5 4-4 6-8 6-13z"/>
<glyph glyph-name="align-right" unicode="&#57377;" d="M512 128l0-37c0-5-2-9-5-12-4-4-8-6-13-6l-476 0c-5 0-9 2-13 6-3 3-5 7-5 12l0 37c0 5 2 9 5 13 4 3 8 5 13 5l476 0c5 0 9-2 13-5 3-4 5-8 5-13z m0 110l0-37c0-5-2-9-5-13-4-3-8-5-13-5l-366 0c-5 0-9 2-13 5-3 4-5 8-5 13l0 37c0 5 2 9 5 13 4 3 8 5 13 5l366 0c5 0 9-2 13-5 3-4 5-8 5-13z m0 109l0-36c0-5-2-9-5-13-4-4-8-5-13-5l-439 0c-5 0-9 1-13 5-4 4-5 8-5 13l0 36c0 5 1 10 5 13 4 4 8 6 13 6l439 0c5 0 9-2 13-6 3-3 5-8 5-13z m0 110l0-36c0-5-2-10-5-13-4-4-8-6-13-6l-329 0c-5 0-10 2-13 6-4 3-6 8-6 13l0 36c0 5 2 9 6 13 3 4 8 5 13 5l329 0c5 0 9-1 13-5 3-4 5-8 5-13z"/>
<glyph glyph-name="logo-mastercard" unicode="&#57378;" d="M470 256c0 23-6 45-17 65-12 19-28 34-47 46-21 11-42 17-64 17-29 0-55-9-78-26 21-19 34-41 41-67l-12 0c-6 22-18 43-37 60-19-17-31-38-37-60l-12 0c7 26 20 48 41 67-23 17-49 26-78 26-22 0-43-6-64-17-19-12-35-27-47-46-11-20-17-42-17-65 0-23 6-45 17-65 12-19 28-34 47-46 21-11 42-17 64-17 29 0 55 9 78 26-19 17-32 37-40 62l12 0c7-21 19-40 36-55 17 15 29 34 36 55l12 0c-8-25-21-45-40-62 23-17 49-26 78-26 22 0 43 6 64 17 19 12 35 27 47 46 11 20 17 42 17 65z m-372 31l20 0-10-62-13 0 8 47-17-47-10 0 0 47-8-47-13 0 11 62 19 0 0-38z m60-26c0-3-1-6-1-9-1-5-2-10-3-14 0-4-1-7-2-10l0-3-10 0 0 6c-3-5-8-7-14-7-4 0-6 1-8 3-3 3-4 7-4 11 0 6 2 11 6 14 5 3 11 5 18 5l5 0 0 3c0 3-3 4-9 4-3 0-8 0-13-2 0 3 1 7 2 11 5 2 10 3 15 3 12 0 18-5 18-15z m-15-13l-3 0c-7 0-11-3-11-8 0-3 1-5 4-5 3 0 5 1 7 3 2 2 3 5 3 10z m52 27l-2-12c-3 1-6 1-10 1-4 0-6-1-6-4 0-1 0-2 1-3l4-2c6-4 9-8 9-14 0-11-6-17-20-17-6 0-11 1-13 1 0 3 1 7 2 12 5-1 9-2 11-2 5 0 8 1 8 4 0 1-1 3-1 3-2 2-3 3-6 3-6 3-9 8-9 14 0 11 6 17 19 17 6 0 11 0 13-1z m20 0l6 0-1-13-7 0c0-3-1-6-1-9 0-1-1-2-1-4 0-3-1-4-2-5l0-4c0-3 2-4 5-4 1 0 2 0 4 1l-2-12c-2 0-5-1-10-1-7 0-10 4-10 11 0 4 0 9 2 14l5 33 13 0z m47-17c0-5 0-9-1-13l-26 0c0-3 1-6 2-7 2-2 5-3 9-3 5 0 9 1 14 4l-2-13c-3-1-8-2-14-2-14 0-22 8-22 22 0 10 2 17 7 22 4 5 9 8 15 8 6 0 11-2 14-5 3-3 4-7 4-13z m-26-2l15 0 0 3-1 2c0 1-1 2-1 2-1 0-2 1-3 1l-2 0c-4 0-7-2-8-8z m59 19c-1-1-2-6-5-15-3 1-5-1-8-5-2-8-3-18-5-30l-14 0 1 3c3 20 5 36 7 47l13 0-2-7c3 3 5 5 7 6 2 2 4 2 6 1z m45 10l-3-13c-4 2-8 3-11 3-6 0-10-2-13-6-3-4-4-9-4-17 0-5 1-9 3-11 2-3 5-4 9-4 3 0 7 1 11 3l-2-14c-3-1-7-2-12-2-7 0-12 3-17 8-4 4-6 10-6 19 0 10 3 19 9 26 5 7 12 11 21 11 3 0 8-1 15-3z m38-24c0 0-1-2-1-4 0-2 0-4 0-5-1-4-2-9-3-15 0-6-1-10-2-12l-10 0 0 6c-3-5-8-7-14-7-4 0-6 1-8 3-3 3-4 7-4 11 0 6 2 11 6 14 5 3 10 5 17 5l5 0c1 1 1 2 1 3 0 3-3 4-8 4-4 0-9 0-14-2 0 3 0 7 2 11 6 2 10 3 15 3 12 0 18-5 18-15z m-15-13l-3 0c-7 0-11-3-11-8 0-3 2-5 4-5 3 0 5 1 7 3 2 2 3 5 3 10z m47 27c-2-3-4-8-5-15-3 1-5-1-7-5-2-4-3-14-6-30l-13 0 1 3c3 16 5 32 6 47l13 0c0-3-1-5-1-7 2 3 4 5 6 6 3 1 5 2 6 1z m33 12l14 0-11-62-12 0 1 5c-3-4-7-6-12-6-6 0-9 2-11 6-4 4-6 9-6 14 0 10 3 17 8 23 3 5 8 8 14 8 5 0 9-2 13-6z m-5-33c0 6-3 9-7 9-3 0-6-1-8-5-1-2-2-6-2-12 0-6 2-9 6-9 3 0 6 1 8 4 2 3 3 7 3 13z"/>
<glyph glyph-name="logo-visa" unicode="&#57379;" d="M86 322c-2 11-9 14-18 14l-68 0 0-3c46-12 84-37 101-84z m19-96l-4 23c-9 23-30 45-54 54l33-127 44 0 66 160-45 0z m117-50l26 160-42 0-26-160z m113 163c-41 0-70-22-70-53 0-23 21-36 36-44 17-8 22-13 22-20 0-10-13-15-25-15-17 0-26 2-39 8l-5 3-6-36c9-5 27-9 46-9 43 0 72 22 72 55 0 18-11 32-35 44-14 7-23 12-23 19 0 7 8 14 24 14 13 0 23-2 31-6l4-2 5 35c-8 3-21 7-37 7z m112-3c-10 0-18-3-22-14l-62-146 44 0c7 19 9 24 9 24 4 0 47 0 53 0 0 0 1-6 4-24l39 0-33 160z m-20-104c0 0 4 10 17 45 0 0 3 10 5 15l3-13c8-39 10-47 10-47-7 0-27 0-35 0z"/>
<glyph glyph-name="logo-amex" unicode="&#57380;" d="M23 128l0 137 23 0 5 12 11 0 5-12 44 0 0 9 4-9 23 0 4 9 0-9 109 0 0 20 2 0c2 0 2-1 2-3l0-17 56 0 0 5c13-7 31-5 45-5l5 12 12 0 5-12 45 0 0 12 7-12 37 0 0 76-36 0 0-9-5 9-38 0 0-9-4 9-51 0c-7 0-15-1-22-4l0 4-34 0 0-4c-4 3-10 4-15 4l-127 0-9-19-8 19-40 0 0-9-5 9-34 0-16-36 0 79 466 0 0-137-25 0c-5 0-11-1-16-4l0 4-36 0c-5 0-12-1-15-4l0 4-64 0 0-4c-5 3-12 4-18 4l-42 0 0-4c-4 4-13 4-18 4l-48 0-11-12-10 12-70 0 0-76 69 0 11 12 11-12 42 0 0 18 5 0c6 0 12 0 18 2l0-20 35 0 0 20 2 0c2 0 2 0 2-3l0-17 107 0c6 0 13 1 18 5l0-5 34 0c6 0 13 0 19 3l0-46z m141 148l-13 0 0 43-19-43-11 0-19 43 0-43-27 0-5 12-27 0-5-12-15 0 24 55 19 0 23-52 0 52 21 0 17-38 16 38 21 0z m-99 23l-9 22-9-22z m173-99l0-19-26 0-16 19-17-19-51 0 0 55 52 0 16-18 17 18 42 0c12 0 22-4 22-18 0-22-24-18-39-18z m-50 9l-14 16-33 0 0-10 28 0 0-11-28 0 0-11 32 0 15 16z m30 67l-44 0 0 55 44 0 0-12-31 0 0-10 30 0 0-11-30 0 0-11 31 0z m7-89l0 43-20-21z m45 114c8-3 9-7 9-14l0-11-13 0c0 12 3 20-12 20l-14 0 0-20-13 0 0 55 31-1c11 0 22-1 22-14 0-6-4-13-10-15z m-15-76l-17 0 0-14 17 0c4 0 8 2 8 7 0 5-4 7-8 7z m2 94l-17 0 0-12 16 0c5 0 9 1 9 6 0 5-4 6-8 6z m69-112c8-3 9-8 9-15l0-11-13 0 0 10c0 9-3 10-12 10l-14 0 0-20-13 0 0 55 31 0c10 0 22-2 22-15 0-6-4-12-10-14z m-26 69l-13 0 0 55 13 0z m13-51l-17 0 0-12 17 0c4 0 8 1 8 6 0 5-4 6-8 6z m142 51l-18 0-25 41 0-41-27 0-5 12-27 0-5-12-15 0c-18 0-26 9-26 27 0 18 8 28 27 28l13 0 0-12c-14 0-27 3-27-16 0-9 2-16 13-16l6 0 18 43 20 0 22-51 0 51 20 0 23-38 0 38 13 0 0-54z m-68-95l-44 0 0 55 44 0 0-11-31 0 0-10 30 0 0-11-30 0 0-11 31 0z m-11 118l-9 22-9-22z m44-118l-26 0 0 12 26 0c3 0 7 1 7 5 0 12-34-4-34 22 0 11 8 16 19 16l26 0 0-11-24 0c-4 0-7-1-7-5 0-12 33 5 33-21 0-13-8-18-20-18z m69 8c-4-6-12-8-18-8l-25 0 0 12 25 0c3 0 7 1 7 5 0 12-34-4-34 22 0 11 9 16 19 16l26 0 0-11-24 0c-4 0-7-1-7-5 0-10 22 0 31-11l0-20z"/>
<glyph glyph-name="logo-stripe" unicode="&#57381;" d="M57 267c-11 4-17 7-17 12 0 4 3 6 9 6 12 0 23-4 31-8l5 28c-6 3-19 8-37 8-13 0-24-3-31-9-8-7-12-16-12-28 0-20 12-29 33-36 13-5 17-8 17-14 0-5-4-7-12-7-9 0-25 4-35 10l-5-28c9-5 25-10 42-10 14 0 25 3 33 9 8 7 12 17 12 29 0 21-12 30-33 38z m112 44l-24 0 0 34-32-5-5-29-11-2-5-26 16 0 0-54c0-15 4-24 11-30 6-5 15-8 28-8 9 0 15 2 19 3l0 29c-2 0-7-2-11-2-7 0-10 4-10 13l0 49 19 0z m74 1c-2 0-5 0-7 0-10 0-19-5-22-15l-3 14-32 0 0-118 37 0 0 77c5 6 12 7 21 7 2 0 4 0 6 0l0 35z m28 50c-11 0-20-9-20-19 0-11 9-20 20-20 11 0 20 8 20 20 0 11-9 19-20 19z m19-169l0 118-38 0 0-118z m107 107c-7 9-16 13-28 13-11 0-20-4-29-14l-2 12-33 0 0-161 37 6 0 38c6-2 12-3 17-3 9 0 23 3 34 14 10 11 15 28 15 51 0 19-4 35-11 44z m-32-72c-3-6-7-9-13-9-3 0-7 1-10 2l0 56c7 7 12 8 14 8 10 0 15-11 15-31 0-11-2-20-6-26z m138 69c-8 11-20 16-36 16-32 0-51-23-51-61 0-21 5-37 15-47 10-9 23-14 41-14 16 0 30 4 40 10l-4 26c-10-5-20-8-32-8-8 0-13 2-16 5-4 3-6 9-7 16l62 0c0 2 0 10 0 13 0 19-4 34-12 44z m-50-34c1 17 5 25 14 25 8 0 13-8 13-25z"/>
<glyph glyph-name="question" unicode="&#57382;" d="M293 119l0 55c0 2-1 5-3 6-2 2-4 3-7 3l-54 0c-3 0-5-1-7-3-2-1-3-4-3-6l0-55c0-3 1-5 3-7 2-1 4-2 7-2l54 0c3 0 5 1 7 2 2 2 3 4 3 7z m73 192c0 17-6 32-16 46-11 15-24 26-40 34-16 7-32 11-48 11-47 0-82-20-106-61-3-4-2-8 2-12l38-28c1-1 3-2 5-2 3 0 6 1 7 4 10 13 19 21 25 26 6 4 15 7 24 7 10 0 18-3 25-8 7-5 11-10 11-17 0-7-2-13-6-17-4-4-10-9-20-13-12-5-23-13-33-25-10-11-15-23-15-35l0-11c0-2 1-5 3-6 2-2 4-3 7-3l54 0c3 0 5 1 7 3 2 1 3 4 3 6 0 4 2 9 6 14 4 6 9 11 15 15 6 3 11 6 14 8 4 2 8 5 13 10 6 4 10 9 13 13 3 5 6 11 8 18 3 7 4 14 4 23z m109-55c0-40-9-77-29-110-20-34-46-60-80-80-33-20-70-29-110-29-40 0-77 9-110 29-34 20-60 46-80 80-20 33-29 70-29 110 0 40 9 77 29 110 20 34 46 60 80 80 33 20 70 29 110 29 40 0 77-9 110-29 34-20 60-46 80-80 20-33 29-70 29-110z"/>
<glyph glyph-name="plot-3d-scatter" unicode="&#75;" d="M277 427l-42 0 0-128-235-86 256-128 256 128-235 86z m-133-235c-15 0-27 12-27 27 0 14 12 26 27 26 15 0 27-12 27-26 0-15-12-27-27-27z m107-75c-15 0-27 12-27 27 0 15 12 27 27 27 14 0 26-12 26-27 0-15-12-27-26-27z m128 118c14 0 26-12 26-27 0-15-12-27-26-27-15 0-27 12-27 27 0 15 12 27 27 27z m-80 16c0-15-12-27-27-27-15 0-27 12-27 27 0 14 12 26 27 26 15 0 27-12 27-26z m-214 149c0-15-12-27-26-27-15 0-27 12-27 27 0 15 12 27 27 27 14 0 26-12 26-27z m107-75c0-14-12-26-27-26-14 0-26 12-26 26 0 15 12 27 26 27 15 0 27-12 27-27z m-139-32c0-14-12-26-26-26-15 0-27 12-27 26 0 15 12 27 27 27 14 0 26-12 26-27z m427 0c0-14-12-26-27-26-14 0-26 12-26 26 0 15 12 27 26 27 15 0 27-12 27-27z m-107 75c0-15-12-27-26-27-15 0-27 12-27 27 0 15 12 27 27 27 14 0 26-12 26-27z m139 32c0-15-12-27-27-27-14 0-26 12-26 27 0 15 12 27 26 27 15 0 27-12 27-27z"/>
<glyph glyph-name="upload-1" unicode="&#57383;" d="M384 91c0 5-2 10-5 13-4 4-8 6-13 6-5 0-10-2-13-6-4-3-6-8-6-13 0-5 2-9 6-12 3-4 8-6 13-6 5 0 9 2 13 6 3 3 5 7 5 12z m73 0c0 5-2 10-5 13-4 4-8 6-13 6-5 0-9-2-13-6-4-3-5-8-5-13 0-5 1-9 5-12 4-4 8-6 13-6 5 0 9 2 13 6 3 3 5 7 5 12z m37 64l0-91c0-8-3-14-8-19-6-6-12-8-20-8l-420 0c-8 0-14 2-20 8-5 5-8 11-8 19l0 91c0 8 3 15 8 20 6 5 12 8 20 8l122 0c4-11 10-20 20-26 9-7 20-11 31-11l74 0c11 0 22 4 31 11 10 6 16 15 20 26l122 0c8 0 14-3 20-8 5-5 8-12 8-20z m-93 186c-3-8-9-12-17-12l-73 0 0-128c0-5-2-9-6-13-3-3-7-5-12-5l-74 0c-5 0-9 2-12 5-4 4-6 8-6 13l0 128-73 0c-8 0-14 4-17 12-3 7-2 14 4 19l128 128c4 4 8 6 13 6 5 0 9-2 13-6l128-128c6-5 7-12 4-19z"/>
<glyph glyph-name="check-square" unicode="&#57384;" d="M421 246l0-91c0-22-8-42-25-58-16-16-35-24-58-24l-237 0c-23 0-42 8-59 24-16 16-24 36-24 58l0 238c0 23 8 42 24 58 17 16 36 24 59 24l237 0c12 0 23-2 34-7 3-1 4-3 5-6 0-4 0-6-3-9l-14-14c-2-1-4-2-6-2-1 0-2 0-3 0-4 1-9 2-13 2l-237 0c-13 0-24-5-33-14-9-9-13-19-13-32l0-238c0-12 4-23 13-32 9-9 20-13 33-13l237 0c13 0 24 4 33 13 9 9 13 20 13 32l0 73c0 2 1 5 3 6l18 19c2 1 4 2 6 2 2 0 3 0 4 0 4-2 6-5 6-9z m66 140l-233-233c-5-4-10-6-16-6-7 0-12 2-17 6l-122 123c-5 5-7 10-7 17 0 6 2 11 7 16l31 31c5 5 10 7 16 7 7 0 12-2 17-7l75-75 185 185c4 5 10 7 16 7 6 0 12-2 16-7l32-31c4-5 6-10 6-17 0-6-2-11-6-16z"/>
<glyph glyph-name="square" unicode="&#57385;" d="M375 439l-238 0c-12 0-23-5-32-14-9-9-14-19-14-32l0-238c0-12 5-23 14-32 9-9 20-13 32-13l238 0c12 0 23 4 32 13 9 9 14 20 14 32l0 238c0 13-5 23-14 32-9 9-20 14-32 14z m82-46l0-238c0-22-8-42-24-58-16-16-35-24-58-24l-238 0c-23 0-42 8-58 24-16 16-24 36-24 58l0 238c0 23 8 42 24 58 16 16 35 24 58 24l238 0c23 0 42-8 58-24 16-16 24-35 24-58z"/>
<glyph glyph-name="bars" unicode="&#57386;" d="M475 128l0-37c0-5-1-9-5-12-4-4-8-6-13-6l-402 0c-5 0-9 2-13 6-4 3-5 7-5 12l0 37c0 5 1 9 5 13 4 3 8 5 13 5l402 0c5 0 9-2 13-5 4-4 5-8 5-13z m0 146l0-36c0-5-1-10-5-13-4-4-8-6-13-6l-402 0c-5 0-9 2-13 6-4 3-5 8-5 13l0 36c0 5 1 10 5 13 4 4 8 6 13 6l402 0c5 0 9-2 13-6 4-3 5-8 5-13z m0 147l0-37c0-5-1-9-5-13-4-3-8-5-13-5l-402 0c-5 0-9 2-13 5-4 4-5 8-5 13l0 37c0 5 1 9 5 12 4 4 8 6 13 6l402 0c5 0 9-2 13-6 4-3 5-7 5-12z"/>
<glyph glyph-name="fork" unicode="&#57387;" d="M192 91c0 8-3 15-8 20-5 5-12 8-19 8-8 0-15-3-20-8-5-5-8-12-8-20 0-7 3-14 8-19 5-5 12-8 20-8 7 0 14 3 19 8 5 5 8 12 8 19z m0 330c0 7-3 14-8 19-5 5-12 8-19 8-8 0-15-3-20-8-5-5-8-12-8-19 0-8 3-15 8-20 5-5 12-8 20-8 7 0 14 3 19 8 5 5 8 12 8 20z m183-37c0 8-3 14-8 19-5 6-12 8-20 8-7 0-14-2-19-8-5-5-8-11-8-19 0-8 3-14 8-19 5-6 12-8 19-8 8 0 15 2 20 8 5 5 8 11 8 19z m27 0c0-10-2-19-7-28-5-8-12-15-20-19-1-55-22-95-65-119-13-7-32-15-58-23-24-7-40-14-48-20-8-6-12-16-12-29l0-7c8-5 15-12 20-20 5-8 7-18 7-28 0-15-5-28-16-38-10-11-23-16-38-16-16 0-29 5-39 16-11 10-16 23-16 38 0 10 2 20 7 28 5 8 12 15 20 20l0 234c-8 5-15 12-20 20-5 8-7 18-7 28 0 15 5 28 16 38 10 11 23 16 39 16 15 0 28-5 38-16 11-10 16-23 16-38 0-10-2-20-7-28-5-8-12-15-20-20l0-142c10 5 25 11 44 16 10 4 19 6 25 9 6 2 13 5 20 9 7 3 13 7 17 11 4 4 8 9 12 15 3 5 6 12 8 19 1 8 2 17 2 27-8 4-15 11-20 19-5 9-7 18-7 28 0 15 5 28 16 39 10 11 23 16 38 16 16 0 29-5 39-16 11-11 16-24 16-39z"/>
<glyph glyph-name="ternary-contour" unicode="&#57388;" d="M486 53l-230 440-198-378-32-62z m-411 47c6 5 19 11 32 9 6 0 10-4 15-9 6-10 19-19 34-25l-96 0z m226-25c0 0 2 0 4 2 36 21 77 42 115 57l32-59z m-115 232c8 9 29 11 55 11 26 0 53-2 73-7l53-87c-30-2-58 0-88 0-57 2-96 34-96 75-2 2 0 4 3 8z m91-104c17 0 37-2 54-2 10 0 21 0 32 0-24-30-79-88-145-64-35 14-67 32-94 55l42 79c11-38 54-66 111-68z m39 128c-19 2-81 10-120 2l60 113z m-203-156c30-24 62-41 98-56 13-4 26-6 39-6 68 0 119 62 138 88l24-45c-41-17-79-37-118-60-55-32-138-9-155 19-7 11-17 17-28 19-6 0-13 0-19 0z"/>
<glyph glyph-name="contour" unicode="&#57389;" d="M179 448c79 0 171-26 209-60 47-40 77-96 81-158 5-38-10-76-36-106-51-45-117-69-186-69-46-2-91 15-125 47-92 92-107 261-52 316 20 19 58 30 109 30m0 21c-51 0-98-10-124-36-66-64-44-247 52-343 38-37 89-56 140-54 73 0 146 26 201 75 66 66 60 207-45 296-42 37-141 62-224 62z m28-102c62 0 115-17 130-32 26-24 38-56 38-90 3-30-8-59-29-81-20-17-45-27-73-25-36 0-70 15-96 40-60 60-87 139-58 169 13 8 39 19 88 19m0 21c-43 0-81-8-100-25-43-43-7-137 57-199 30-30 69-47 111-47 32 0 64 11 88 34 51 60 47 148-11 203-23 19-87 34-145 34z m32-74c8 0 17-5 23-9 30-30 45-72 41-79-6-11-17-17-28-17-17 2-34 11-47 21-36 30-38 49-36 62 0 2 2 5 2 5 11 10 28 17 45 17m0 21c-30 0-64-17-68-34-11-32 10-60 42-86 17-14 39-23 62-25 19 0 36 8 45 23 15 24-13 77-43 107-10 9-23 17-38 15"/>
<glyph glyph-name="scatter-chart" unicode="&#57390;" d="M518 390c-2 0-2-2-4 0 0 3 0 3 0 5-2 0-2 0-4 0 0 6-4 10-4 17-3 0-5 0-5 2-2-2-2-2-4-4-2 0 0 2-2 2-4-7-6-15-4-22-2-2-2-6-2-8-3 0-3 0-5 0 0-2 0-4-2-4-6-3-13-5-19-5-2 0-6 0-9-2-2-2-4-6-6-8-2-2-4-2-4-5 2-2 2-4 2-6-7-11-17-6-26-11 0-2 2-4 2-6-8-11-19-17-29-24-3 0-7 3-9 5 0 4 4 8 6 10 0 7-2 13-6 17-2-2-4-4-6-6-3 0-3 2-3 4 7 2 3 13 5 15-2 0-2 2-2 2-7 0-11 7-15 0 0-2 2 0 2-2-2 0-2 0-4-2 0-4 2-6-3-6 0 2 3 4 0 6-4-6-6-15-6-23 6-7 4-17-2-24 0 0-2-2-2-2-13 11-5 34-2 47-3-4-5-6-9-9 4 9 6 15 9 20 4 0 10 2 15 4 4 0 8 0 12 0-2 0-4 2-2 6-2 0-4 0-6 0l0 5c-7-3-15-5-22-5 0 5-4 5-8 5 0 0-2 0-2 0 2 4 2 6 6 8-4 0-8-2-10-6-5-2-9-5-13-7 0 2-5 0-5 2 0 0 3 3 3 5-5-2-7-2-11-2 4 4 6 6 11 10 4 2 8 5 10 7-4 0-8 0-10 2-3-2-7-2-9 0 0 0-2 2-2 2-4 2-9 2-15 2-2 2-4 2-9 2-2 2 0 9-4 9-2 0 0-5-2-5-77 0-154 9-228 30 2-10 2-15 2-19-2 0-4 2-2 4-2 0-2 0-4-2-5 2-9 5-13 7-2-7 0-13 2-20 0 0-2 0-2 0 0 0 0-2 2-2-2-2-4-4 0-6-2 0-2-2-2-2-7-13-11-26-19-36 0-3 0-7-3-9 0-9-2-17-6-23 6-5 0-13 2-18 2-2 4-6 4-10 0-2 0-7 3-7-3-4 0-10 4-12 0-3-2-3-2-5 0-8 8-12 8-21 0-2 0-6 0-9 7-2 13-6 19-10 0-2 0-2 0-2 7-2 11-9 9-17 6-3 15-5 23-5 0-2-2 0-2-2 9-4 17-10 26-17 13-6 25-8 40-11 0 3 0 5 3 7 6-2 12-2 17-2 4-7 8-11 12-15 5-2 7-7 7-11 4-6 8-11 15-13 2 5 6 9 10 11 11 0 22-11 22-21 4-2 4-9 8-11-2-15 15-19 24-21-2 8-2 17 0 23 10 7 21 13 30 19 10 5 21 5 32 2 0 5-5 0-5 3 5 4 7-3 11-3 0 0 0-2 0-2 2-2 4-2 6-2 3 2 3 2 5 2 2-2-2-2 0-2 2 2 4 4 4 7 0-3 8-7 8-3-2 0-4 3-8 5 2 0 4 4 2 6-2-2-2-2-4-2 2 6 8 6 17 6 0 0 0 5 2 5 2 0 2-5 0-5 9 7 21 5 30-4 4 0 8 2 11 7 10 0 8-9 17-9 4-4 0-15 4-19 0 2 0 2 0 4 0 0 2 0 2 0 0-2-2-4-2-4 2-4 6-9 8-11 0 0 3 2 3 2 2-2 2-4 2-6 4 0 8-4 8-9 2 2 4 2 9 2 0-4-7-4-7-8 5 2 7 6 9 11-2 0 0-3-2-3 2 13-2 26-9 37 0 0 2 0 2 2-10 8-17 25-12 40 2 3 4 7 4 9 4 2 8 6 10 11 0 6 3 10 9 10 0 0 2 0 2 0 0 13 15 9 15 17-2-2-4-2-6 0 2-2 4 2 2 5 2-3 6 0 8 2 0 0 0 0 0 2-2 0-2 0-4 0 2 0 4 0 4 2-2 4-4 9-6 13-2 0-2 0-4 0 2 2-2 4-2 6 0 0 0 0 2 0 0 4-2 7-5 9 3 0 0 2 3 2-5 2-5 13 0 15-3-2 2-4-3-9 3 0 0 0 3-4 2-2 4-2 4-4 0 2 0 2 0 4 6-2 0-11 4-15 4 9 4 15 4 24-4 2-6 4-6 8 2-4 4-6 6-6 0 0 0-2 0-2 7 6 9 12 7 21 0 0-2 0-2 0 2 0 0 2 2 2l0 2c6 7 15 11 23 15 0 2 0 2 2 4 0-2 0-2-2-4 2 2 4 4 9 4 0 2 0 5-5 5 3-3 3-3 3-5-5-4-7 7-11 5 0 6 0 12 2 19 4 0 6 2 9 4 0 2 0 4 0 6 0 0 2 0 2-2 0-2-2 0-2-2 4 2 6 4 6 7 0-3 0-3 2-3 2 0-2 3-2 5 4-2 13 6 6 10z m-433-91l43 0 0-43-43 0z m0 64l43 0 0-43-43 0z m-64 0l43 0 0-43-43 0z m0-64l43 0 0-43-43 0z m192-64l43 0 0-43-43 0z m64 128l43 0 0-43-43 0z m0-64l43 0 0-43-43 0z m0-64l43 0 0-43-43 0z m-64 128l43 0 0-43-43 0z m0-64l43 0 0-43-43 0z m128 0l43 0 0-43-43 0z m0-64l43 0 0-43-43 0z m64 64l43 0 0-43-43 0z m-256 64l43 0 0-43-43 0z m0-64l43 0 0-43-43 0z m0-64l43 0 0-43-43 0z"/>
<glyph glyph-name="choropleth" unicode="&#57391;" d="M469 512l-426 0c-24 0-43-19-43-43l0-426c0-24 19-43 43-43l426 0c24 0 43 19 43 43l0 426c0 24-19 43-43 43z m-179-47c2-2 4-2 7-2 2 0 4 0 6 0 0-2 0-2-2-4l-2 0c0 0 0 0-2-2 0 0 0-3-3-3l5 0c0 3 0 3 0 5 0 0 0 0 0 2-2 2-2 2-5 0-2-2-2-2-4 0 0 0 0 2-2 2 0 2-2 2-2 2l-4 2-3 2c0 0-2 0-2 0l11 0c2-2 2-2 2-4z m-13-2c0-2 0-4 0-6 0 0-2-3-2-3-2-2-2 0-2 3 0 2 0 2 0 4-2 0-2 0-4 0 0 0-2 0-2 0 0 0-2-2 0-2 2 0 2-2 2-5-4 0-9 0-13 0-2 0-4 0-9 0 0 0 0 3 0 3 0 0 3 0 3 0 4 0 6 0 8 2 2 6-2 6-4 6-2 0-2 0-4 2l-3 2 30 0c0 0-2 0-2 0 0-2 2-4 2-6z m-70 0c2 0 2-2 4-2 0 0 0-4-2-2-2 2-6 2-8 2-3 2-5 2-7 2-2 0-6 0-8 0l-3 0c-2 0-2-2-4-2l0 4c0 0 0 0-2 0 0 0-2 0-2-2-2 2-4 2-6 2l-3 0c-2 0-2 0-4 0-2 0-4 0-6 0l-2 0c0 0 0-2-3-2 0-2-2-4-4 0-2 0-2 0-4 0-2 0-4 0-6 0-3 0-7 2-9 4-4 0-9-2-13-2-2 0-4 2-8 2l-13 0c0 0-2 0-2 0-2 0-2 2-5 2l94 0c0 0 2 0 2 0 5-2 7-2 9-4 2 0 6 0 9 2 0 0 0 2 0 2l2 0z m-15-79c-2 0-2 2-2 4 0 2-2 2-4 2l-3 0c0 0 0 3 0 3 0 0 3-3 3-3 2 0 4 0 6-2 0-2 0-4 0-4z m-149 85l44 0c0 0 0-2-2-2-2 0-4-2-6-2-2 0-4-2-9-2-2 0-2 0-4 0l-2 0c0 0-2-2-2-4 0-2 2-5 4-5 2 0 4 0 7-2 2 0 4-2 4-4 2 0 2-2 0-2-4 2-7 2-9 4l-2 2-2-2c-4 0-6-2-9-2 0-2 3-4 5-4 2-2 4-2 6-2 2 0 4 0 4 0 3 0 3 0 5 0 0 0 0-5-5-5-2 0-6 0-8-2 0-2-2-2-2-4 2-2 4-6 4-9 0-2 2 0 4 0 0 0 2 0 2 3 0 2 5 2 3-3 0-2 0-4 2-4 0 2 2 4 2 4l4-4c0 0 2 2 2 0 0-2 0 0-2-2-2 0-6-2-8-4l-3 0c-2 0-2-2-4-2-2 0-2-5 0-5 4 0 9 2 13 5 2 0 2-3 6 0l2 2c3 2 5 2 5 4 2-2 2-2 4-2 0 0 2 0 2 0 2 0 2 2 4 2 0 2 0 2 0 2-2 0-2 0-4 0 2 0 2 2 4 4 0 0 0 3 0 3 0 2 3 2 3 2 2 0 2 0 0-5-3-4 2 3 4 3 2 0 4 0 6 0 0 2 0 2 2 2 0 2 0 2 2 4 3-2 5-2 7-2 2 0 4 0 6-2 2 0 11-2 13-2 4 0 6-3 6-7 0-4 3-4 3-4 2 0 4-2 6-4 0-3 0-7 2-9 2-2 4-2 7-4 0 0 0 2 0 2 0 2 0 2-3 2 0 0 0 2 0 2 0 2 3 2 3 0 0 2 2 0 4-2 2-2 2-4 2-4 0-2 0-7 2-7 2 0 4-2 6-4 0 0 3-2 3-4 0-2 2-4 2-7 0-2 0-10 0-12 0-5 2-9 4-13 0-4 0-9 2-11 2-2 4-2 9-2 2 0 4-2 6-6 0-7 2-9 4-13 2 0 5-2 2-4-2-3-2-5 0-5 3 0 3 2 5-2 2-2 2-4 4-6 0-2 2-2 2-2 2 0 2-5 7-5 0 0 0 3 0 3-3 2-3 2-5 4 0 2-2 4-2 4 0 2-2 4-2 4l-2 0c-2 2-2 5-4 7 0 0-3 2-3 2 0 0-2 2 0 4 3 2 3-2 5-4 2-4 6-9 8-11 2-4 5-6 9-10 2-3 4-3 4-5 0-2 2-4 2-4 0-2 0-4 2-6 5 0 9-3 11-7 0-2 2-6 4-6 2 0 5 0 7 0 0 0 2-2 4 0 0 2 2 2 4 2 2 0 4-2 4-4 3-2 5-5 7-5 2 0 4-2 4-2 2 0 2 0 4-2 3-2 5-4 3-6 0-2 2-5 4-5 2-2 4-2 4-4 2 0 4-2 4-2 0 0 2-2 5-2 0 0 2 2 2 2 0 0 0 0 0 2 2 0 2 0 4 0 2-2 2-4 2-6 2-2 2-7 2-9 0-2 0-4-2-6-2-2-4-2-4-4-2-3-4-5-4-7 0-2 0-6 0-8-3-2-3-5-3-9 0-4 7-4 7-6 0-2 4-11 4-13 2-4 2-6 2-11 2-4 5-6 9-6 2 0 4-2 4-4 2-3 4-3 4-5 0-2 2-4 0-6 0 0 0-11-2-15 0-4 0-9 0-13-2-2-4-2-2-4 2-2 6-4 6-4 0-2 3-5 0-9 0-2-2-4-2-6-2-2-2-5-2-7 0-2-2-2-2-4 0-2 2-2 2-4 0-2-2-4-2-7 0-2 0-4 2-6 0-2-2-4-2-6-2-3-2-5-2-5 0-2 2-2 2-4 0 0 0-2-2-4l-292 0z m426-426l-106 0c0 0 0 2 0 2 0 2 0 2 0 4-2 0-5 0-5 0 0 0 0 0 0 2 0 0 3 2 3 2l2 2c2 3 2 5 4 5 0 0 2 2 2 4 0 2 0 0-2 0-2 0-2 2-2 4 2 0 4 0 6-2 0 0 2 0 2 0 0 0 0 0 0 2l0 2c0 0 0 3 0 3 0 0 0 0 0 2 5 0 7 0 11 0 2 0 2 2 2 4l2 2c0 0 2 2 0 4l-4 0-2 2c0 0 0 0 0 3 0 2 0 4 2 6 0-4 0-6 4-9 2-2 7 0 9 3l2 2c2 2 4 4 4 6 0 2 0 2 0 4 0 0 0 3 2 3 0 0 2 2 2 2 0 2 3 2 5 4 0 2 0 4 0 4 0 2 0 2 0 4l2 3 4 2c2 0 2 2 4 2 3 0 5 0 7 2 0 2 2 4 2 6l2 3 2 2c2 2 2 4 2 4 0 2 0 2 0 4 0 2 0 4 2 4 0 3 0 3 0 5 0 2 0 4 3 4l10 13c2 2 2 4 5 6l2 4c0 3 2 5 2 7 0 2 0 2-2 4 0 2-2 2-5 4-2 0-4 0-4 3 0 0-2 0-2 2 0 0-2 2-2 2-2 2-4 2-4 2-3 0-5 0-7 0l-6 4c-2 2-4 2-7 2-2 0-2 2-4-2 0-2-2-2-2-4l-4 0c0 0 0 0-2 0 0 0 2 2 2 2 0 2 0 2 0 4 0 2 0 2 0 5 0-3-2-3-5-5-4 0-4 2-2 2 2 0 5 3 7 3 2 0 2 2 2 2 0 2 0 2-2 4-2 2-2 4-5 6l-4 7c-2 2-4 4-8 4-2 0-5-4-7 0l0 2c-2 2-2 2-4 4-2 0-2 0-4 0 0 0-5 0-2 3 0 0 0 2 0 2 0 2 0 2 0 4 0 0 0 2 0 2 0-2-3-2-5-4-2 2-2 2-4 4-2 0-4 0-4 0 0 0-2 0-2-2 0 0 0-2 0-2 0 0 0 2-2 2-3 2-5 2-7 0 0 0-2 0-2 2 0 2-2 2-2 4 0 0-2 0-2 0-2 0-2-2-2-4 0-2-3-4-3-6 0 0 0 2 0 2 0 2 0 2 0 4 0 2 3 4 0 4 0 0-2 0-2 0l2-6-2 0c-2-2-4-2-4-4 0-2-2-5-4-5-2 0-4 0-2 0 0 3-2 3-2 3l-5 0c0 0-2 0-2 0l-4-3c-2-2-4 0-7 0 0 3-2 3-2 5 0 0 0 0 0 2 0 2 0 2 0 4 0 2 0 2 0 4l0 3c0 2 0 2-2 4 0 2-2 2-4 2-2 0-4-2-4-2-2 0-2 0-5 0-2 0 0 0 0 2l0 2c0 2 0 4 0 4 0 2 0 2 3 5 2 2 2 4 2 6 0 0 0 2-2 2-3 0-5 0-9 0-2 0-4-2-4-4 0 0 0 0 0-2 0-2 0-5-2-5-3 3-5 3-5 0 0-2 0 0-4 3l-2 0c-2 2-4 4-4 6 0 0 0 2 0 2 0 2 0 4 0 7 0 2 0 2 0 4 0 2 0 4 0 6 0 0 0 2 2 2l2 5c2 0 2 2 4 4 2 0 4 0 7 0 2 0 4 0 6-2 0 0 2 0 4 0 0 0 0 0 0 2 0 0 2 2 5 2 2 0 6 2 8 2 0 0 2-4 4-4 2 2 2 4 2 0 0-4 3-7 5-11 0-2 2-4 4-4 2 2 2 2 2 4 0 0 0 2 0 2l0 2c0 3-2 5-2 7 0 0 0 2-2 2 0 0 0 0 0 2 0 2 2 4 2 4 2 3 2 3 4 5 2 2 2 4 5 4 2 2 6 2 4 4-2 2-2 4-2 9 0 2 2 2 2 0 0-2 4 2 2 4 0 0 0 2 0 2 0 0 0 0 2 0 0 0 0 2 0 2 0 2 2 2 4 2 2 0 7 0 9 0 0 0 0 3 0 3 0 2-2 2-2 4 0 0 0 2 0 2 0 2 2 4 4 4 2 0 2 0 4 0 0 0 0 0 2 2 0 0 3 0 3 0 0 0 0-6 2-6 2 0 4 2 4 2l6 2c2 0 5 0 7 2 0 0 0 2 0 2l0 3c0 0 0 2-2 2 0 0-3 0-3-2 0 0-2 0-2 0 0 2 0 4-2 4-2-2-2-2-2-2 0 0-2 2-2 2 2 0 2 2 0 4-2 0-2 0-4 0 0 0-2-2-5-2-2 0-2 0-4-2-2 2-2 4-2 4 0 2 0 2 2 2 2 0 7 2 9 2 2 0 4 0 4-2 0 0 0-6 0-6 0 0 6 2 4 2-2 0 0 0 0 2l2 2c2 0 5 0 7 0 0 0 2 2 2 2 2 0 2-2 0-4-2-2-2-4-4-8-3-3 0-3 2-3 2 0 4 0 6 0 2 0 2 0 4-2 0 0 0 0 3 0 2 0 2 0 4 0 0 0 0 0 2 0 0 0 0 2 0 2l-2 5 0 8c0 0 0 2 0 2 0 0-2 0-2 0l0 3c-2 0-2-3-2 0 2 2 2 2 2 4 0 2 2 2 2 4 0 0 0 2 0 2-2 0-4 2-4 4 0 3-3 3-5 5l-2 0c-2 0-4 0-6 0 0 2 0 2-2 4 0 0 0 2-3 2l-2 2-4 7 0 2c0 0-2 0-4-4 0 0-2-3-2-3 0 0-2 0-2 0-3 0-5 3-7 5 0 2 0 2 0 2 0 0 2 2 2 2-2 2-4 2-6 2-2 2-4 2-9 4-4 0-6 0-10 0-2-2-2-4-2-4 0-2 0-4 0-4 0 0-3 0-3 0 0 0 0 0 0-2 3-2 5-5 5-7 0-2 0-2-2-4-3-4-5-4-7-4 0 0-2 0-2 0 2-2 2-2 2-5 0-2 0-4 0-8-2 0-2 0-4 0-2 0-2 2-2 2 0 2 0 2 0 4 0 0-2-2-2-2 0 2 0 2 0 4 0 0 0 0 0 3 0 2-3 4-5 4 0 2-2 2-4 2-2 0-6 0-8 0-3 0-5 2-7 4l-4 0c0 0-2 0-2 0l-2 0c0 2 0 2-3 5-2 0 0 2-2 4 0 2 0 2 0 4l5 2 4 2c0 2 2 5 4 5 4 0 7-3 7-3 0 0 0 3 0 3 0 2 0 4 0 4 0-2 4-2 2-4-2-3 0-3 0-3 2 0 4 3 4 3 0 0 4 2 4 0 0-3 0-5 2-5 2 0 5 2 2 5-2 2-4 2-4 4l4 2-2 0c0 0-2 0-2 0 0 0-2 0-2 0 0 0 0 2 2 2 2 0 4 0 7 0l2 0c2 0 2 0 4 2 0 0 2 2 2 2 0 3-2 3-2 3 0 0 2 2 2 2 2 0 4 0 4 0l3 0c0 0 0 2 0 2 2 0 0-4 2-2 2 0 2 0 4 0 0-2 0-5-2-5l-2 0c0 0-2-2 0-2l4 0c0 2 2 2 2 5 0 0 2 0 2 0 0 0 4-3 2-3l-2-2c-2 0-2-2-2-2l0-2c0 0-2 0-2 0l-2 0c0 0-2 0-2 0 0 0 0 0-2 0 0-2 0-6 0-6 0 0 2 0 4 2 2 0 6 0 8 0 2 0 5-2 5-2 2 0 2-3 4-3 0 0 0 0 2 0 2 0 2-2 2-2l4 0c0 0 0 2 0 2l3 0c2-2 2-2 4-2 0 0 0 2 0 2 0 3 0 3-2 5-2 2-5 2-7 4 0 0 0 2 0 2 2 0 5 0 7-2 2-2 4-2 4-2l2 2 2 0 7 4-3 0c-2 0-4 0-4 2-2 3-4 3-6 5 0 0-4-2-4 0 0 2 0 2 0 4 0 2 0 2-3 4l-10 2-13 0 134 0z m-151 335c0 2-2-5 0-7 0-2 0-2-2-4l-2 0c0 0-3 2-3 4 0 0 0 0 0 2 0 2 0 5-2 5l-2 0c-2 0-2-3-4-5 0-2 0-4 0-6 0-2 0-2 0-4-2 0-4 2-4 6 0 0 0 2 0 2 0 2 0 4 0 7 2 2 4 2 6 4 2 0 6-2 6-2 3 0 5 0 7 0 2-2 4-5 4-7-2 0-4 2-4 5z m6-7c5 2 7 2 9 2 2-2-2-2-2-4-2 0-2-2-5-2l-4-2-2 0 0-2c-2-2-4-2-4-2l4 2 0 2z m-19 13c0 0-4 0-6 0 0 0-2 0-2 2-3 0-5 0-5-2-2 0-4 0-4 0 0 0 0 2 0 2l4 2c2 2 5 5 9 5 2-3 4-5 6-5 0 0 0-4-2-4z"/>
<glyph glyph-name="error-bars" unicode="&#57392;" d="M320 262c0-35-29-64-64-64-35 0-64 29-64 64 0 36 29 64 64 64 35 0 64-28 64-64z m-320 22l512 0 0-43-512 0z m0 42l43 0 0-128-43 0z m469 0l43 0 0-128-43 0z"/>
<glyph glyph-name="close-thin" unicode="&#57393;" d="M405 375l-30 30-119-119-119 119-30-30 119-119-119-119 30-30 119 119 119-119 30 30-119 119z"/>
<glyph glyph-name="ternary-scatter" unicode="&#57396;" d="M486 53l-460 0 230 440z m-426 22l390 0-194 371z m239 181c0-12-10-21-22-21-11 0-21 9-21 21 0 12 10 21 21 21 12 0 22-9 22-21z m42-64c0-12-9-21-21-21-12 0-21 9-21 21 0 12 9 21 21 21 12 0 21-9 21-21z m-192-64c0-12-9-21-21-21-12 0-21 9-21 21 0 12 9 21 21 21 12 0 21-9 21-21z m128 192c0-12-9-21-21-21-12 0-21 9-21 21 0 12 9 21 21 21 12 0 21-9 21-21z m-64-128c0-12-9-21-21-21-12 0-21 9-21 21 0 12 9 21 21 21 12 0 21-9 21-21z m0-85c0-12-9-22-21-22-12 0-21 10-21 22 0 11 9 21 21 21 12 0 21-10 21-21z m171 21c0-12-10-21-21-21-12 0-22 9-22 21 0 12 10 21 22 21 11 0 21-9 21-21z"/>
<glyph glyph-name="scatter-matrix" unicode="&#57397;" d="M239 512l32 0 0-512-32 0z m-239-239l512 0 0-32-512 0z m41 24l-32 2c2 25 12 66 46 66 20 0 32-11 43-19 13-11 17-13 24-11 10 4 25 40 34 66 6 19 13 38 21 53 24 45 49 49 53 52l5-32c0 0-15-5-32-35-5-12-11-29-17-49-15-40-28-76-54-85-23-8-40 6-53 15-9 6-15 13-24 13-8 0-14-24-14-36z m311 98c-13 0-21 8-21 21 0 13 8 21 21 21 13 0 21-8 21-21 0-13-8-21-21-21z m0 32l0-11z m85-32c-12 0-21 8-21 21 0 13 9 21 21 21 13 0 22-8 22-21 0-13-9-21-22-21z m0 32l0-11z m11 32c-13 0-21 8-21 21 0 13 8 21 21 21 13 0 21-8 21-21 0-13-8-21-21-21z m0 32l0-11z m-139-203c-12 0-21 9-21 21 0 13 9 22 21 22 13 0 22-9 22-22 0-12-9-21-22-21z m0 32l0-11z m139 0c-13 0-21 9-21 21 0 13 8 22 21 22 13 0 21-9 21-22 0-12-8-21-21-21z m0 32l0-11z m-75-43c-12 0-21 9-21 22 0 12 9 21 21 21 13 0 22-9 22-21 0-13-9-22-22-22z m0 32l0-10z m-256-224c-12 0-21 9-21 22 0 12 9 21 21 21 13 0 22-9 22-21 0-13-9-22-22-22z m0 32l0-10z m86-42c-13 0-22 8-22 21 0 13 9 21 22 21 12 0 21-8 21-21 0-13-9-21-21-21z m0 32l0-11z m0 42c-13 0-22 9-22 22 0 12 9 21 22 21 12 0 21-9 21-21 0-13-9-22-21-22z m0 32l0-10z m-128-181c-13 0-22 9-22 21 0 13 9 22 22 22 12 0 21-9 21-22 0-12-9-21-21-21z m0 32l0-11z m106-32c-12 0-21 9-21 21 0 13 9 22 21 22 13 0 22-9 22-22 0-12-9-21-22-21z m0 32l0-11z m295-47c-13 38-41 105-60 122-6 0-17-17-23-26-13-19-28-38-50-43-4 0-12 0-21 7-28 21-36 111-40 136l32 2c4-51 17-102 25-113 7 5 19 20 26 30 15 19 28 37 45 39 6 0 15 0 25-9 32-28 64-124 68-134z"/>
<glyph glyph-name="line-chart" unicode="&#57399;" d="M506 371c0 0 2 0 0 0 2 0 0 2 0 0z m-69-260c5 2 7 6 9 11-2 0 0-3-2-3 0-4-7-4-7-8z m81 279c-2 0-2-2-4 0 0 3 0 3 0 5-2 0-2 0-4 0 0 6-4 10-4 17-3 0-5 0-5 2-2-2-2-2-4-4-2 0 0 2-2 2-4-7-6-15-4-22-2-2-2-6-2-8-3 0-3 0-5 0 0-2 0-4-2-4-6-3-13-5-19-5-2 0-6 0-9-2-2-2-4-6-6-8-2-2-4-2-4-5 2-2 2-4 2-6-7-11-17-6-26-11 0-2 2-4 2-6-8-11-19-17-29-24-3 0-7 3-9 5 0 4 4 8 6 10 0 7-2 13-6 17-2-2-4-4-6-6-3 0-3 2-3 4 7 2 3 13 5 15-2 0-2 2-2 2-7 0-11 7-15 0 0-2 2 0 2-2-2 0-2 0-4-2 0-4 2-6-3-6 0 2 3 4 0 6-4-6-6-15-6-23 6-7 4-17-2-24l-2-2c-13 11-5 34-2 47-3-4-5-6-9-9 4 9 6 15 9 20 4 0 10 2 15 4 4 0 8 0 12 0-2 0-4 2-2 6-2 0-4 0-6 0l0 5c-7-3-15-5-22-5 0 5-4 5-8 5l-2 0c2 4 2 6 6 8-4 0-8-2-10-6-5-2-9-5-13-7 0 2-5 0-5 2 0 0 3 3 3 5-5-2-7-2-11-2 4 4 6 6 11 10 4 2 8 5 10 7-4 0-8 0-10 2-3-2-7-2-9 0l-2 2c-4 2-9 2-15 2-2 2-4 2-9 2-2 2 0 9-4 9-2 0 0-5-2-5-77 0-154 9-228 30 2-10 2-15 2-19-2 0-4 2-2 4-2 0-2 0-4-2-5 2-9 5-13 7-2-7 0-13 2-20l-2 0c0 0 0-2 2-2-2-2-4-4 0-6-2 0-2-2-2-2-7-13-11-26-19-36 0-3 0-7-3-9 0-9-2-17-6-23 6-5 0-13 2-18 2-2 4-6 4-10 0-2 0-7 3-7-3-4 0-10 4-12 0-3-2-3-2-5 0-8 8-12 8-21 0-2 0-6 0-9 7-2 13-6 19-10 0-2 0-2 0-2 7-2 11-9 9-17 6-3 15-5 23-5 0-2-2 0-2-2 9-4 17-10 26-17 13-6 25-8 40-11 0 3 0 5 3 7 6-2 12-2 17-2 4-7 8-11 12-15 5-2 7-7 7-11 4-6 8-11 15-13 2 5 6 9 10 11 11 0 22-11 22-21 4-2 4-9 8-11-2-15 15-19 24-21-2 8-2 17 0 23 10 7 21 13 30 19 10 5 21 5 32 2 0 5-5 0-5 3 5 4 7-3 11-3l0-2c2-2 4-2 6-2 3 2 3 2 5 2 2-2-2-2 0-2 2 2 4 4 4 7 0-3 8-7 8-3-2 0-4 3-8 5 2 0 4 4 2 6-2-2-2-2-4-2 2 6 8 6 17 6 0 0 0 5 2 5 2 0 2-5 0-5 9 7 21 5 30-4 4 0 8 2 11 7 10 0 8-9 17-9 4-4 0-15 4-19 0 2 0 2 0 4l2 0c0-2-2-4-2-4 2-4 6-9 8-11l3 2c2-2 2-4 2-6 4 0 8-4 8-9 2 2 4 2 9 2 2 13-2 26-9 37 0 0 2 0 2 2-10 8-17 25-12 40 2 3 4 7 4 9 4 2 8 6 10 11 0 6 3 10 9 10l2 0c0 13 15 9 15 17-2-2-4-2-6 0 2-2 4 2 2 5 2-3 6 0 8 2 0 0 0 0 0 2-2 0-2 0-4 0 2 0 4 0 4 2-2 4-4 9-6 13-2 0-2 0-4 0 2 2-2 4-2 6 0 0 0 0 2 0 0 4-2 7-5 9 3 0 0 2 3 2-5 2-5 13 0 15-3-2 2-4-3-9 3 0 0 0 3-4 2-2 4-2 4-4 0 2 0 2 0 4 6-2 0-11 4-15 4 9 4 15 4 24-4 2-6 4-6 8 2-4 4-6 6-6l0-2c7 6 9 12 7 21l-2 0c2 0 0 2 2 2l0 2c6 7 15 11 23 15 0 2 0 2 2 4 0-2 0-2-2-4 2 2 4 4 9 4 0 2 0 5-5 5 3-3 3-3 3-5-5-4-7 7-11 5 0 6 0 12 2 19 4 0 6 2 9 4 0 0 0 2 0 2 0 2 0 2 0 4 0 0 2 0 2-2 2 0 4 2 4 5 0-3 0-3 2-3 2 0-2 3-2 5 4-2 13 6 6 10z m-125-149l-43 0 0 13-115-9 0-15-43 0 0 32-77 75-32 0 0 43 43 0 0-32 77-75 32 0 0-13 115 7 0 15 43 0z"/>
<glyph glyph-name="mesh3d" unicode="&#57395;" d="M256 512l-235-128 0-256 235-128 235 128 0 256z m-192-181l64-32 0-66-64 36z m305 4l-75 38 67 32 72-40z m-36-19l-77-39-77 39 77 38z m-190 19l-64 32 72 38 67-32z m28-58l64-32 0-72-64 36z m64-151l0-64-64 34 0 66z m42 0l64 36 0-66-64-34z m0 47l0 72 64 32 0-68z m107 126l64 32 0-62-64-36z m-60 128l-68-34-68 34 68 36z m-260-207l64-37 0-66-64 34z m320-103l0 66 64 37 0-66z"/>
<glyph glyph-name="pie-chart" unicode="&#57398;" d="M219 258l156-156c-20-21-43-37-70-48-27-12-56-17-86-17-39 0-76 9-110 29-33 20-60 46-80 80-19 33-29 70-29 110 0 40 10 77 29 110 20 34 47 60 80 80 34 20 71 29 110 29z m54-2l221 0c0-30-6-58-17-85-12-27-28-51-48-71z m202 37l-219 0 0 219c40 0 77-10 110-29 34-20 60-47 80-80 20-34 29-71 29-110z"/>
<glyph glyph-name="time-series" unicode="&#57402;" d="M31 253c2 7 4 15 7 23 8 24 17 48 28 71 28 62 58 99 86 99 26 0 49-26 96-100 52-82 76-109 112-109 39 0 73 41 104 110 10 23 20 48 28 73 3 8 5 16 8 23 1 5 2 8 2 10l-18 5c-1-2-1-5-3-9-2-7-4-15-7-23-8-25-17-49-28-71-28-62-58-99-86-99-26 0-49 25-96 100-52 82-76 109-112 109-39 0-73-42-104-110-10-23-20-48-28-73-3-9-5-17-8-24-1-4-2-7-2-9l18-5c1 2 1 5 3 9z m-19 190c3-7 5-15 8-23 8-25 18-50 28-73 31-69 65-110 104-110 36 0 60 27 112 109 47 74 70 100 96 100 28 0 58-37 86-99 11-23 20-47 28-71 3-8 5-16 7-23 2-4 2-7 3-9l18 5c0 2-1 5-2 9-3 7-5 15-8 24-8 25-18 50-28 73-31 68-65 110-104 110-36 0-60-27-112-109-47-75-70-100-96-100-28 0-58 37-86 99-11 22-20 46-28 71-3 8-5 16-7 23-2 4-2 7-3 9l-18-5c0-2 1-5 2-10z m-12-310l114 0 0-95-114 0z m360 0l152 0 0-95-152 0z m-246 0l246 0 0-19-246 0z m0-76l246 0 0-19-246 0z"/>
<glyph glyph-name="book-2" unicode="&#57400;" d="M487 375c7-10 9-23 5-36l-79-259c-3-12-11-23-22-31-11-8-22-12-35-12l-263 0c-15 0-29 5-43 15-13 10-23 23-28 37-5 13-5 25-1 37 0 0 0 3 1 7 1 5 1 8 1 11 0 2 0 4-1 6 0 3-1 5-1 6 1 2 2 4 3 6 1 2 2 4 4 6 2 3 4 5 5 7 5 7 9 16 13 26 4 10 7 19 9 26 0 2 0 5 0 9-1 4-1 6 0 8 0 2 2 5 4 8 3 3 5 5 5 7 4 6 8 15 12 26 4 11 7 19 7 26 1 1 0 4 0 9-1 4-1 7 0 8 1 2 3 5 6 8 4 4 6 6 6 7 4 5 8 13 13 24 4 11 7 20 7 28 1 1 0 4 0 7-1 3-1 6-1 7 0 2 1 4 3 6 1 1 3 4 5 6 2 3 3 5 5 6 1 2 3 5 4 9 2 3 3 7 5 10 1 3 2 6 4 10 2 4 4 7 6 9 2 3 4 5 7 7 3 2 7 3 11 3 3 0 8 0 13-1l0-1c7 2 12 2 14 2l218 0c14 0 25-5 32-16 8-10 10-23 6-37l-79-259c-7-22-13-37-20-43-7-7-19-10-37-10l-248 0c-5 0-9-2-11-5-2-3-2-7 0-12 4-13 18-20 41-20l264 0c5 0 10 2 16 5 5 3 8 6 10 11l85 282c2 5 2 10 2 17 7-3 13-7 17-13z m-304 0c-1-3-1-5 0-7 1-1 3-2 6-2l174 0c2 0 4 1 7 2 2 2 4 4 5 7l6 18c0 3 0 5-1 7-1 1-3 2-6 2l-173 0c-3 0-5-1-8-2-2-2-4-4-4-7z m-24-73c-1-3-1-5 0-7 2-2 3-2 6-2l174 0c2 0 5 0 7 2 3 2 4 4 5 7l6 18c1 2 0 5-1 6-1 2-3 3-5 3l-174 0c-3 0-5-1-7-3-3-1-4-4-5-6z"/>
<glyph glyph-name="instagram" unicode="&#57401;" d="M389 256c0 9-1 17-3 26 0 0 90 0 90 0 0 0 0-177 0-177 0-19-6-35-20-49-13-13-29-20-48-20 0 0-304 0-304 0-19 0-35 7-48 20-14 14-20 30-20 49 0 0 0 177 0 177 0 0 89 0 89 0-1-11-2-20-2-26 0-36 13-67 39-94 26-26 57-39 94-39 36 0 67 13 94 39 26 27 39 58 39 94m19 220c19 0 35-6 48-20 14-13 20-29 20-48 0 0 0-75 0-75 0 0-111 0-111 0-27 37-63 56-109 56-47 0-83-19-109-56 0 0-111 0-111 0 0 0 0 75 0 75 0 19 6 35 20 48 13 14 29 20 48 20 0 0 304 0 304 0m32-85c0 0 0 37 0 37 0 8-4 12-12 12 0 0-37 0-37 0-8 0-12-4-12-12 0 0 0-37 0-37 0-3 1-5 3-8 3-3 6-4 9-4 0 0 37 0 37 0 8 0 12 4 12 12m-102-135c0-23-8-42-24-58-16-16-35-24-58-24-23 0-42 8-58 24-16 16-24 35-24 58 0 23 8 43 24 58 16 16 35 24 58 24 23 0 42-8 58-24 16-15 24-35 24-58"/>
<glyph glyph-name="ohlc" unicode="&#57403;" d="M107 469l42 0 0-426-42 0z m42-192l86 0 0-42-86 0z m-128-128l86 0 0-42-86 0z m320 320l43 0 0-426-43 0z m-85-64l85 0 0-42-85 0z m128-170l85 0 0-43-85 0z"/>
<glyph glyph-name="candlestick-candlestick" unicode="&#57394;" d="M139 512l21 0 0-512-21 0z m106 0l22 0 0-512-22 0z m0-85l22 0c12 0 21-9 21-22l0-106c0-13-9-22-21-22l-22 0c-12 0-21 9-21 22l0 106c0 13 9 22 21 22z m-106-235l21 0c13 0 21-9 21-21l0-107c0-13-8-21-21-21l-21 0c-13 0-22 8-22 21l0 107c0 12 9 21 22 21z m-107 320l21 0 0-512-21 0z m0-171l21 0c13 0 22-8 22-21l0-107c0-12-9-21-22-21l-21 0c-13 0-21 9-21 21l0 107c0 13 8 21 21 21z m320 171l21 0 0-512-21 0z m0-235l21 0c13 0 22-8 22-21l0-107c0-12-9-21-22-21l-21 0c-13 0-21 9-21 21l0 107c0 13 8 21 21 21z m107 235l21 0 0-512-21 0z m0-43l21 0c13 0 21-8 21-21l0-107c0-12-8-21-21-21l-21 0c-13 0-22 9-22 21l0 107c0 13 9 21 22 21z"/>
<glyph glyph-name="tag-solid" unicode="&#57404;" d="M165 384c0 10-4 19-11 26-7 7-16 11-26 11-10 0-19-4-26-11-7-7-11-16-11-26 0-10 4-19 11-26 7-7 16-11 26-11 10 0 19 4 26 11 7 7 11 16 11 26z m304-165c0-10-3-18-10-25l-140-141c-8-7-17-10-26-10-11 0-19 3-26 10l-204 205c-8 7-14 16-19 29-5 12-7 23-7 33l0 119c0 10 3 18 10 26 8 7 16 10 26 10l119 0c10 0 21-2 33-7 13-5 22-11 30-19l204-204c7-7 10-16 10-26z"/>
<glyph glyph-name="animation" unicode="&#57405;" d="M234 372c-69-9-116-58-116-116 0-58 47-107 116-116-43 25-69 68-69 116 0 48 26 91 69 116z m-98-19c-58-8-97-48-97-97 0-49 39-89 97-97-36 21-57 57-57 97 0 40 21 76 57 97z m356-97c0-76-61-138-138-138-76 0-137 62-137 138 0 76 61 138 137 138 77 0 138-62 138-138z"/>
<glyph glyph-name="ban-circle" unicode="&#57406;" d="M411 257c0 31-8 59-24 84l-216-215c26-17 55-25 85-25 21 0 41 4 60 12 20 8 36 19 50 33 14 14 25 31 33 50 8 19 12 40 12 61z m-285-86l216 216c-26 17-55 26-86 26-28 0-54-7-78-21-24-14-43-33-57-57-13-24-20-50-20-78 0-31 8-59 25-86z m349 86c0-30-5-59-17-86-12-27-27-51-47-70-19-20-43-35-70-47-27-12-55-17-85-17-30 0-58 5-85 17-27 12-51 27-70 47-20 19-35 43-47 70-12 27-17 56-17 86 0 30 5 58 17 85 12 28 27 51 47 71 19 19 43 35 70 46 27 12 55 18 85 18 30 0 58-6 85-18 27-11 51-27 70-46 20-20 35-43 47-71 12-27 17-55 17-85z"/>
</font>
</defs>
</svg>
